<svg width="400" height="400" viewBox="0 0 400 400" fill="none" xmlns="http://www.w3.org/2000/svg">
<g id="Illustration/Food">
<g id="Group">
<path id="Blob" fill-rule="evenodd" clip-rule="evenodd" d="M219.285 34.6667C312.8 34.6667 332.488 164.265 332.87 165.332C333.265 166.43 333.636 167.561 333.995 168.659C334.724 170.888 335.663 173.034 336.392 175.248C336.839 176.599 337.659 177.718 338.209 178.994C339.275 181.432 340.582 183.757 342.109 185.936C342.74 186.799 343.235 187.753 343.579 188.765C343.82 189.539 344.62 189.746 344.965 190.429C345.523 191.535 346.268 192.546 346.912 193.608C347.059 193.982 347.396 194.248 347.794 194.303L347.668 195.358C347.902 195.737 347.981 195.224 348.225 195.314C348.531 195.726 348.967 196.091 349.011 196.718C349.052 197.307 349.739 197.362 349.974 197.876C350.49 198.991 351.924 199.559 351.903 201.023C352.934 201.67 353.442 202.781 354.22 203.653C354.62 204.055 354.863 204.584 354.909 205.145L354.916 205.275C354.911 205.833 355.988 205.708 355.698 206.469C357.348 207.708 357.776 209.731 358.648 211.407C360.045 214.096 361.656 216.695 362.605 219.64C363.08 221.113 364.002 222.506 364.514 223.998C365.666 227.351 367.05 230.631 367.799 234.123C368.107 235.565 368.738 236.94 369.034 238.386L369.374 240.058C369.882 242.567 370.363 245.081 370.682 247.624C370.847 248.197 370.846 248.805 370.682 249.379C370.407 250.032 371.138 250.45 371.197 251.104C371.27 251.881 370.959 252.617 371.183 253.441C371.306 253.896 371.183 254.626 371.325 255.153C371.784 256.867 371.202 258.635 371.702 260.338C371.781 260.996 371.711 261.663 371.499 262.291C371.154 264.387 371.786 266.527 371.155 268.574C370.859 269.583 370.803 270.646 370.989 271.679L371.067 272.078C371.123 272.373 371.16 272.66 371.015 272.859C370.44 273.645 370.588 274.572 370.474 275.431L370.452 275.574C370.286 276.537 370.457 277.546 370.166 278.526C369.769 279.486 369.547 280.509 369.508 281.547C369.655 283.307 369.062 284.887 368.699 286.521C368.518 287.337 368.668 288.308 367.77 288.915C367.313 289.224 368.391 289.824 367.737 290.276L367.66 290.324C367.18 290.595 367.201 291.032 367.337 291.555C367.46 292.034 366.624 292.364 366.863 292.854C367.103 293.344 367.21 294.057 366.931 294.147C366.232 294.376 366.943 295.135 366.356 295.28C366.299 295.311 366.259 295.367 366.249 295.432C366.048 297.27 364.865 298.779 364.572 300.617C364.35 301.714 363.923 302.759 363.312 303.698C362.807 304.604 362.377 305.551 362.028 306.528C361.371 308.171 360.248 309.543 359.615 311.178C359.443 311.62 358.296 311.472 358.879 312.38C358.211 312.616 358.414 313.309 358.145 313.742C357.849 314.069 357.504 314.348 357.122 314.57C356.875 315.543 356.402 316.445 355.741 317.201C354.586 318.89 353.325 320.505 351.965 322.036L350.843 323.293C349.342 324.969 347.793 326.609 345.815 327.765C345.306 328.062 345.538 328.625 345.12 328.93C342.695 330.72 340.462 332.751 337.703 334.108C336.548 334.676 335.558 335.685 334.378 336.277C332.142 337.399 330.065 338.797 327.673 339.672L327.247 339.82C325.723 340.327 324.223 341.095 322.677 341.653C319.5 342.901 316.183 343.763 312.8 344.22L310.712 344.451C308.857 344.656 306.999 344.845 305.125 344.896C304.238 344.921 303.387 344.639 302.575 344.741C301.784 344.841 300.981 344.776 300.217 344.551C299.613 344.382 299.102 344.902 298.451 344.622C297.952 344.31 297.333 344.263 296.795 344.491L296.689 344.54C296.38 344.719 295.773 344.389 295.303 344.283C294.618 344.187 293.945 344.021 293.294 343.786C292.79 343.553 292.147 344.302 291.796 343.506C291.158 344 247.833 333.705 208.036 354.612C204.795 356.759 201.002 357.702 197.539 359.37C195.929 360.147 194.119 360.501 192.386 361.032L192.016 361.148C188.957 362.137 185.82 362.812 182.687 363.517C179.809 364.14 176.893 364.573 173.958 364.814C171.848 365.005 169.727 365.093 167.622 365.323C166.768 365.416 165.932 364.814 165.096 365.331C163.219 364.82 161.249 365.441 159.377 364.863C158.132 365.232 156.963 364.775 155.818 364.438C154.945 364.179 154.122 364.716 153.24 364.335C152.437 363.916 151.537 363.716 150.632 363.756C149.129 363.986 147.821 363.435 146.452 363.144C143.271 362.466 140.102 361.734 136.944 360.947C135.91 360.688 134.748 360.788 133.862 359.997C133.085 359.303 131.858 359.738 131.094 358.919C130.816 358.62 130.46 359.198 130.04 358.973C129.221 358.533 128.169 358.823 127.404 358.03C126.837 357.442 125.767 357.84 125.14 357.131L125.057 357.027C124.687 356.513 123.709 357.725 123.42 356.58C122.252 356.49 121.284 355.853 120.244 355.417C119.383 355.057 118.366 355.26 117.588 354.51C116.926 353.871 115.674 354.341 115.1 353.383C113.696 353.371 112.661 352.321 111.323 352.044C110.307 351.778 109.332 351.376 108.423 350.851C106.982 350.11 105.519 349.412 104.045 348.75C103.516 348.504 103.001 348.229 102.503 347.926C102.223 347.763 102.156 347.401 101.756 347.313C99.2289 346.753 97.1032 345.28 94.9444 343.992C93.7132 343.355 92.5353 342.622 91.4218 341.798L91.053 341.521C90.7271 341.24 90.0502 341.102 89.7637 340.713C88.9649 339.628 87.7699 339.097 86.6865 338.445L86.507 338.336C85.8966 337.976 85.3417 337.529 84.8598 337.011C84.7686 336.911 84.7315 336.697 84.6347 336.673C82.8361 336.229 81.7629 334.744 80.3878 333.705C79.2049 332.813 78.1704 331.725 77.0056 330.815L76.5622 330.483C73.8365 328.534 44.0115 295.715 40.6319 290.052L39.6648 288.431C38.699 286.807 37.7443 285.171 36.8654 283.503L36.1168 282.083C35.3695 280.66 34.6339 279.227 33.9835 277.768L33.1134 275.822C31.3774 271.927 29.6787 268.012 28.2309 263.991C26.9398 260.403 25.871 256.756 24.792 253.107C24.1008 250.763 23.5168 248.409 23.0234 246.022C22.2352 242.206 21.5323 238.375 20.9148 234.528C20.3388 230.906 20.5518 227.231 19.7827 223.65C20.2866 221.451 19.3602 219.219 19.9354 217.023C19.5087 215.938 19.8839 214.813 19.924 213.744C19.9652 212.64 19.7176 211.484 20.1583 210.365C20.3602 209.857 19.8935 209.247 20.1464 208.626C20.424 208.11 20.456 207.497 20.2338 206.954C20.9831 206.61 20.0899 206.079 20.4011 205.589C20.7366 205.056 20.8848 204.427 20.8223 203.801C20.6041 202.4 21.4113 201.106 21.2696 199.84C21.1218 198.545 21.7612 197.448 21.7592 196.288L21.7509 196.069C21.6406 194.546 22.7295 193.399 22.7658 191.958C22.7692 191.832 23.0673 191.716 23.2307 191.59C23.1783 191.266 22.8198 191.339 22.5655 191.087C22.9715 190.735 23.3266 190.328 23.621 189.879C23.8438 189.263 24.002 188.625 24.0931 187.976L23.0609 186.644C23.4418 185.883 23.309 185.19 23.8176 184.592C24.0389 184.331 23.9155 183.534 23.9428 182.983C23.9789 182.26 24.9084 181.829 24.6842 181.258C24.5112 180.601 24.5672 179.904 24.8431 179.283C26.173 173.42 27.5276 167.563 28.9069 161.712C29.052 161.084 28.9258 160.295 29.6976 159.928C28.8542 159.057 30.1787 158.753 30.1993 158.063C30.3068 157.418 30.5554 156.804 30.9275 156.266C31.4543 155.258 31.5028 154.008 31.8028 152.873C31.8819 152.07 32.1859 151.306 32.6799 150.669C33.1938 150.136 33.1197 149.21 33.5066 148.463C34.0532 147.56 34.4768 146.589 34.7662 145.574C34.8534 144.845 35.144 144.155 35.6049 143.583C36.0141 143.131 35.678 142.196 36.4734 141.855C36.6965 140.544 37.4794 139.491 38.059 138.342L38.1651 138.125C39.5889 135.169 41.1891 132.301 42.9571 129.536C44.426 127.209 45.8553 124.857 47.3466 122.544C47.8317 121.798 48.3476 121.054 48.8811 120.346C50.7344 117.739 52.7307 115.237 54.8608 112.851C56.809 110.787 58.666 108.629 60.7115 106.644C61.7989 105.588 62.6887 104.292 63.7445 103.17C66.2323 100.522 68.7871 97.9464 71.4742 95.5015C73.7435 93.2596 76.2251 91.2426 78.8843 89.4787C79.6072 89.0392 80.2017 88.3945 80.8996 87.9079C81.7468 87.4413 82.5597 86.9151 83.3322 86.3335C84.2309 85.4883 85.3337 84.9506 86.2415 84.1676C86.9462 83.5601 88.0735 83.9064 88.5778 82.8136C88.9454 82.0183 90.3214 82.3097 90.7847 81.3805C92.0549 81.3384 92.648 80.1085 93.8016 79.7042L93.9553 79.6563C95.1705 79.3248 96.2078 78.3438 97.3228 77.6483C98.3982 76.8868 99.5234 76.198 100.691 75.5866C102.883 74.5995 104.775 73.0955 106.918 72.0759C108.961 71.1052 110.799 69.684 113.027 69.1428C113.553 69.0153 113.455 68.5511 113.818 68.353C114.195 68.1458 114.607 68.2831 114.948 68.0441C116.357 67.1249 125.77 34.6667 219.285 34.6667Z" fill="#CCE69A"/>
<path id="Shape" fill-rule="evenodd" clip-rule="evenodd" d="M113.799 104.24C110.671 106.004 106.091 103.753 105.577 100.198C107.573 100.092 109.705 99.9362 111.282 98.7098C112.86 97.4833 113.412 94.7673 111.831 93.5458C98.9593 91.965 86.438 87.5918 75.3812 80.8152C82.931 78.5403 89.4274 73.7417 96.5187 70.2939C103.61 66.846 112.187 64.807 119.26 68.2933C126.204 71.7166 134.199 67.3499 141.446 64.6241C154.047 59.8842 168.497 60.2816 180.819 65.7069C189.808 69.6651 205.041 63.2403 214.753 61.7669C230.616 59.3601 246.102 70.4781 262.031 68.5527C260.322 69.6826 258.613 70.8125 256.904 71.9424C258.587 71.7886 260.279 71.7264 261.969 71.7561C248.749 78.0819 235.53 84.4077 222.311 90.7335C225.66 92.0881 229.009 93.4427 232.357 94.7973C231.57 97.3211 228.748 99.0256 226.148 98.5478C228.24 100.213 230.332 101.878 232.425 103.543C230.191 105.129 227.365 105.858 224.643 105.549C227.542 107.421 229.934 110.069 231.503 113.142C238.408 110.841 245.973 110.558 253.031 112.336C246.654 113.172 240.277 114.008 233.9 114.844C234.863 117.466 235.826 120.088 236.789 122.71C245.12 120.803 253.973 121.237 262.078 123.948C254.041 124.152 246.004 124.357 237.968 124.562C237.78 135.224 232.471 146.098 223.151 151.279C213.83 156.461 195.205 161.068 189.035 145.981C184.312 149.081 184.647 156.532 188.014 161.068C191.382 165.604 196.732 168.115 201.57 171.031C217.643 180.717 229.765 196.758 234.696 214.864C239.627 232.97 237.312 252.943 228.37 269.441C240.425 271.315 251.627 278.176 258.775 288.062C274.168 280.9 282.693 264.558 294.484 252.342C307.897 238.447 326.412 229.59 345.647 227.867C357.028 226.848 370.007 229.043 376.646 238.343C385.274 250.431 377.319 269.226 363.546 274.783C352.628 279.188 340.313 276.973 328.569 277.805C304.953 279.478 284.221 293.404 264.748 306.869C263.953 311.228 265.547 315.948 268.822 318.934C275.788 311.734 284.574 306.31 294.132 303.309C297.665 302.2 302.961 302.489 303.353 306.171C303.502 307.565 302.769 308.887 302.027 310.076C295.654 320.291 286.669 328.862 276.164 334.745C270.62 337.85 264.423 340.257 258.078 339.901C251.733 339.546 245.271 335.884 243.116 329.905C242.117 327.134 242.009 323.928 240.118 321.67C236.918 317.851 230.771 318.995 226.286 321.164C221.801 323.333 217.02 326.283 212.207 324.996C200.175 321.778 187.653 320.398 175.209 320.918C159.361 321.582 143.213 325.271 127.859 321.291C122.73 319.962 116.99 317.865 112.446 320.591C103.492 325.963 109.532 343.159 100.345 348.124C97.0908 349.882 93.1028 349.234 89.5129 348.342C73.6484 344.405 58.7679 336.564 46.5507 325.705C45.3732 324.658 44.1602 323.482 43.8301 321.942C42.8401 317.322 49.6601 315.4 54.3072 316.255C62.2012 317.708 69.751 320.998 76.189 325.792C78.4459 327.472 81.8798 325.512 82.8359 322.866C83.792 320.22 83.1341 317.306 82.7609 314.517C80.4041 296.902 91.455 278.382 108.076 272.092C98.0131 257.406 94.1864 238.59 97.7145 221.14C101.243 203.691 112.079 187.839 127.057 178.216C133.04 174.372 139.915 171.228 143.728 165.225C147.541 159.222 145.868 149.151 138.892 147.767C132.319 154.885 121.628 157.896 112.306 155.254C102.985 152.612 95.4638 144.439 93.6038 134.93C87.4167 137.02 81.2296 139.109 75.0425 141.199C80.5341 136.967 87.0375 134.057 93.8526 132.783C94.5066 129.948 95.1607 127.114 95.8147 124.28C84.0091 123.519 72.037 125.462 61.0781 129.918C67.8218 124.842 76.402 122.262 84.8268 122.778C93.3959 123.303 102.107 119.11 107.042 112.086C103.954 111 101.179 109.04 99.1232 106.494C102.272 104.784 106.086 104.341 109.543 105.283M174.362 290.11C173.801 290.657 173.196 291.306 173.235 292.09C173.275 292.873 174.45 293.457 174.856 292.786C177.068 289.121 180.916 286.486 185.132 285.748C189.349 285.01 193.863 286.181 197.189 288.877C198.349 289.817 199.385 290.941 200.711 291.629C201.188 291.877 202.005 291.883 202.024 291.346C202.031 291.169 201.93 291.009 201.831 290.863C199.443 287.343 195.872 284.641 191.835 283.299C188.297 282.124 184.196 282.049 181.032 284.021C179.883 284.737 178.902 285.69 177.932 286.634C176.742 287.793 175.552 288.951 174.362 290.11ZM157.203 283.705C152.622 283.099 147.69 284.636 144.639 288.107C144.101 288.719 143.612 289.407 143.427 290.201C143.242 290.994 143.416 291.912 144.031 292.447C146.391 288.78 150.584 286.362 154.939 286.157C159.295 285.952 163.697 287.964 166.392 291.392C166.813 291.928 167.215 292.513 167.813 292.841C168.411 293.168 169.281 293.126 169.646 292.55C170.08 291.862 169.554 290.981 169.018 290.368C165.974 286.891 161.784 284.31 157.203 283.705ZM189.518 279.015C189.447 279.789 190.47 280.271 191.205 280.018C191.941 279.764 192.428 279.087 192.921 278.484C197.016 273.476 204.814 271.967 210.483 275.086C211.226 274.458 211.269 273.254 210.771 272.417C210.273 271.581 209.365 271.068 208.438 270.771C206.43 270.13 204.25 270.348 202.184 270.766C197.295 271.756 192.355 274.074 189.785 278.349C189.66 278.556 189.539 278.775 189.518 279.015ZM170.294 295.265C168.284 295.405 166.317 295.937 164.436 296.657C161.836 297.652 159.276 299.102 157.754 301.433C159.986 302.065 162.125 300.4 164.164 299.294C168.738 296.812 174.671 297.068 179.014 299.936C180.376 300.836 182.127 301.998 183.455 301.049C180.347 297.153 175.266 294.92 170.294 295.265ZM178.55 294.009C180.074 293.214 181.293 291.924 182.805 291.107C184.887 289.98 187.481 289.85 189.665 290.763C190.852 291.258 191.902 292.033 193.071 292.568C194.24 293.104 195.632 293.381 196.796 292.837C196.925 292.776 197.059 292.697 197.114 292.565C197.202 292.351 197.045 292.119 196.892 291.945C194.287 288.971 190.204 287.359 186.269 287.752C182.334 288.145 178.65 290.532 176.684 293.962C177.094 294.503 177.948 294.322 178.55 294.009ZM148.023 294.15C148.84 293.686 149.479 292.968 150.225 292.398C151.718 291.258 153.664 290.733 155.53 290.95C157.609 291.191 159.485 292.292 161.205 293.486C161.708 293.835 162.221 294.202 162.818 294.341C163.414 294.48 164.125 294.329 164.462 293.818C164.796 293.313 164.662 292.608 164.305 292.118C163.947 291.629 163.411 291.308 162.889 291.001C160.763 289.754 158.516 288.508 156.055 288.381C152.978 288.222 150.119 289.826 147.458 291.378C146.379 292.008 145.14 292.962 145.368 294.19C146.107 294.771 147.206 294.615 148.023 294.15ZM161.879 282.225C162.434 282.943 163.521 282.173 164.135 281.503C166.023 279.439 168.746 278.161 171.54 278.027C174.335 277.893 177.167 278.904 179.245 280.778C179.769 281.25 180.322 281.808 181.027 281.827C181.732 281.847 182.368 280.862 181.808 280.432C178.813 278.131 175.328 276.25 171.559 276.002C167.789 275.753 163.727 277.444 161.982 280.794C161.748 281.243 161.569 281.824 161.879 282.225ZM195.205 281.595C195.702 281.384 196.067 280.956 196.447 280.573C199.348 277.656 204.261 277.004 207.822 279.064C208.712 279.579 210.052 280.147 210.569 279.258C211 278.516 210.231 277.653 209.498 277.209C204.708 274.304 197.881 275.411 194.254 279.679C193.884 280.113 193.53 280.709 193.784 281.22C194.024 281.704 194.707 281.805 195.205 281.595ZM197.852 281.869C197.647 282.041 197.441 282.234 197.355 282.488C197.113 283.197 197.974 283.86 198.721 283.801C199.468 283.742 200.103 283.261 200.781 282.942C202.433 282.163 204.419 282.348 206.096 283.073C206.759 283.359 207.402 283.729 208.117 283.837C208.831 283.944 209.665 283.707 209.991 283.062C207.149 279.539 201.326 278.967 197.852 281.869ZM152.914 280.517C153.338 280.716 153.917 280.678 154.19 280.297C154.561 279.779 154.164 279.074 153.77 278.573C152.436 276.877 151.001 275.207 149.167 274.069C147.334 272.932 145.025 272.384 142.983 273.082C142.775 273.836 143.714 274.348 144.452 274.606C147.297 275.597 149.878 277.333 151.87 279.592C152.18 279.943 152.49 280.318 152.914 280.517ZM178.049 282.41C174.693 280.269 170.111 280.231 166.72 282.317C166.13 282.679 165.525 283.188 165.479 283.879C165.433 284.569 166.371 285.21 166.835 284.698C168.709 282.632 172.132 282.204 174.457 283.744C175.598 284.5 177.237 284.396 178.275 283.503C178.765 283.452 178.465 282.675 178.049 282.41ZM202.467 293.993C197.697 293.671 193.259 296.477 189.797 299.773C190.049 300.356 190.909 300.201 191.491 299.949C195.434 298.243 199.376 296.537 203.319 294.831C203.615 294.438 202.957 294.026 202.467 293.993ZM157.075 296.117C157.661 296.449 158.236 296.901 158.91 296.902C159.584 296.903 160.253 296.091 159.825 295.569C158.478 293.927 156.362 292.946 154.238 292.978C152.115 293.011 150.029 294.057 148.733 295.739C148.893 296.351 149.641 296.632 150.267 296.541C150.892 296.449 151.443 296.097 152.023 295.846C153.627 295.151 155.554 295.254 157.075 296.117ZM180.725 295.669C180.672 296.138 181.204 296.497 181.676 296.472C182.148 296.446 182.562 296.17 182.976 295.942C184.713 294.985 186.853 294.789 188.735 295.414C189.942 295.814 191.447 296.469 192.318 295.543C192.394 295.014 191.863 294.615 191.391 294.363C189.7 293.464 187.839 292.785 185.924 292.803C184.008 292.821 182.032 293.624 180.939 295.197C180.839 295.34 180.745 295.495 180.725 295.669ZM177.165 275.061C179.137 275.767 180.973 276.849 182.546 278.231C183.195 278.801 183.815 279.432 184.602 279.788C185.389 280.143 186.41 280.152 187.026 279.547C185.663 278.502 184.544 277.142 183.781 275.604C183.37 274.775 182.274 274.624 181.35 274.578C180 274.512 178.649 274.446 177.299 274.38C177.157 274.572 177.106 274.829 177.165 275.061ZM159.555 279.802C160.252 279.151 160.766 278.33 161.41 277.627C162.409 276.536 163.725 275.738 165.154 275.357C165.77 275.192 166.581 274.877 166.488 274.245C164.741 273.942 162.748 273.697 161.37 274.813C159.441 276.376 157.911 278.429 156.965 280.725C157.896 280.931 158.858 280.453 159.555 279.802ZM144.027 279.011C145.278 279.827 146.53 280.643 147.782 281.458C148.312 281.804 148.989 282.157 149.539 281.844C150.049 281.554 150.127 280.806 149.861 280.283C149.595 279.76 149.088 279.41 148.601 279.082C147.582 278.395 146.563 277.709 145.543 277.023C144.69 276.448 143.299 275.99 142.835 276.908C142.435 277.7 143.283 278.527 144.027 279.011ZM170.386 288.817C170.865 289.293 171.536 289.806 172.144 289.515C172.422 289.382 172.6 289.109 172.765 288.849C173.308 287.991 173.85 287.133 174.393 286.275C172.972 284.695 170.183 284.653 168.715 286.19C168.602 286.308 168.492 286.443 168.472 286.605C168.44 286.861 168.638 287.083 168.822 287.266C169.343 287.783 169.864 288.3 170.386 288.817ZM148.478 301.083C149.496 301.44 150.698 301.546 151.596 300.948C150.244 299.393 148.66 298.041 146.912 296.95C146.416 296.641 145.857 296.342 145.278 296.424C144.7 296.507 144.188 297.164 144.468 297.677C145.328 299.251 146.786 300.489 148.478 301.083ZM204.335 288.587C204.816 288.005 205.298 287.424 205.779 286.843C205.945 286.642 206.12 286.416 206.109 286.156C206.096 285.827 205.794 285.59 205.507 285.428C204.507 284.866 203.326 284.631 202.187 284.768C201.752 284.82 201.298 284.939 200.992 285.253C200.686 285.567 200.597 286.125 200.905 286.437C201.604 287.145 202.302 287.852 203.001 288.56C203.229 288.791 203.518 289.042 203.836 288.973C204.046 288.927 204.198 288.752 204.335 288.587ZM154.13 276.027C154.562 276.491 155.104 276.967 155.736 276.915C157.091 276.803 157.528 274.464 158.881 274.592C159.245 273.993 158.253 273.514 157.552 273.503C155.739 273.474 153.926 273.445 152.113 273.416C152.705 274.345 153.381 275.22 154.13 276.027ZM165.329 301.512C169.1 301.496 172.872 301.479 176.644 301.463C176.313 300.717 175.429 300.414 174.63 300.249C172.013 299.707 169.268 299.789 166.688 300.489C166.111 300.645 165.451 300.926 165.329 301.512ZM188.618 297.543C187.37 297.599 186.122 297.656 184.874 297.712C184.471 297.73 183.954 297.847 183.904 298.247C183.882 298.426 183.972 298.598 184.059 298.756C184.389 299.355 184.74 299.978 185.31 300.356C185.881 300.733 186.739 300.77 187.184 300.25C187.524 299.851 187.551 299.228 187.956 298.896C188.218 298.682 188.58 298.639 188.869 298.464C189.159 298.289 189.343 297.835 189.075 297.63C188.949 297.533 188.776 297.536 188.618 297.543ZM156.304 299.631C156.637 299.11 156.322 298.374 155.802 298.039C155.283 297.705 154.634 297.664 154.016 297.634C153.335 297.6 152.437 297.726 152.315 298.397C152.257 298.717 152.419 299.031 152.577 299.315C153.039 300.15 153.72 301.108 154.67 301.014C155.406 300.941 155.905 300.254 156.304 299.631ZM205.603 292.147C206.163 292.193 206.665 291.813 207.058 291.411C208.256 290.186 209.018 288.542 209.179 286.836C208.783 286.583 208.298 286.976 207.994 287.335C206.973 288.542 205.953 289.748 204.932 290.955C204.569 291.384 205.043 292.1 205.603 292.147ZM143.175 283.598C143.744 284.31 144.842 284.533 145.644 284.1C146.055 283.878 146.401 283.437 146.32 282.978C146.247 282.568 145.874 282.291 145.531 282.057C145.035 281.719 144.538 281.38 144.042 281.042C143.891 280.939 143.716 280.83 143.537 280.868C143.413 280.893 143.314 280.984 143.23 281.079C142.631 281.766 142.606 282.886 143.175 283.598ZM187.249 276.081C187.845 276.581 188.728 276.064 189.319 275.559C189.961 275.011 190.603 274.462 191.245 273.914C190.881 273.567 190.301 273.645 189.809 273.747C188.38 274.042 186.951 274.338 185.523 274.633C186.098 275.116 186.673 275.598 187.249 276.081ZM209.686 269.072C210.046 269.52 210.803 269.424 211.216 269.024C211.628 268.624 211.78 268.032 211.899 267.47C211.927 267.335 211.953 267.189 211.897 267.063C211.753 266.743 211.277 266.839 210.959 266.987C210.103 267.387 209.094 268.335 209.686 269.072Z" fill="white"/>
<path id="Shape_2" fill-rule="evenodd" clip-rule="evenodd" d="M97.7146 221.14C101.243 203.691 113.306 189.083 128.284 179.461C120.711 189.842 97.471 206.866 104.941 225.833C116.881 256.15 163.33 260.918 161.714 261.248C134.241 266.849 95.0878 234.132 97.7146 221.14Z" fill="#E7EAEE"/>
<g id="Food">
<path id="Combined Shape" d="M141.446 64.6244C154.047 59.8846 168.497 60.2822 180.818 65.7074C186.874 68.3735 193.342 66.3284 199.888 64.2591C203.059 63.2564 206.25 62.2479 209.42 61.7669C217.488 60.5429 225.459 62.8174 233.44 65.0951C241.151 67.2955 248.87 69.4991 256.697 68.5531L251.571 71.9427C253.254 71.7889 254.946 71.7264 256.636 71.7562L216.977 90.7337L227.024 94.7972C226.237 97.321 223.415 99.026 220.814 98.5482L227.092 103.543C224.858 105.129 222.031 105.858 219.31 105.549C222.208 107.421 224.601 110.069 226.17 113.142C233.075 110.841 240.639 110.558 247.697 112.335L228.566 114.844L231.455 122.71C239.786 120.804 248.64 121.236 256.745 123.948L232.635 124.562C232.447 135.224 227.138 146.098 217.817 151.28C208.497 156.461 195.316 154.599 189.035 145.981C184.312 149.081 184.647 156.532 188.015 161.068C190.772 164.783 194.86 167.14 198.907 169.473H198.908C199.802 169.988 200.695 170.503 201.57 171.031C217.643 180.717 229.765 196.759 234.696 214.865C239.627 232.97 237.311 252.943 228.37 269.441C240.425 271.315 251.628 278.175 258.775 288.062C269.303 283.163 276.618 273.971 283.963 264.742C287.357 260.476 290.758 256.203 294.484 252.342C307.897 238.447 326.412 229.59 345.647 227.868C357.028 226.848 370.007 229.043 376.645 238.343C385.274 250.432 377.319 269.227 363.546 274.784C356.07 277.8 347.939 277.711 339.785 277.623C336.031 277.583 332.272 277.543 328.569 277.805C304.954 279.478 284.221 293.404 264.748 306.868C263.954 311.228 265.547 315.948 268.822 318.934C275.788 311.734 284.574 306.31 294.132 303.309C297.665 302.2 302.961 302.489 303.353 306.171C303.502 307.565 302.769 308.886 302.027 310.076C295.655 320.291 286.669 328.861 276.164 334.744C270.619 337.85 264.423 340.257 258.078 339.902C251.733 339.546 245.271 335.883 243.116 329.905C242.786 328.988 242.553 328.023 242.32 327.061C241.851 325.116 241.383 323.18 240.118 321.67C236.918 317.851 230.771 318.995 226.286 321.164C225.706 321.445 225.121 321.739 224.531 322.035C220.564 324.026 216.397 326.116 212.207 324.995C200.175 321.777 187.653 320.398 175.209 320.918C170.724 321.106 166.214 321.536 161.706 321.966C150.285 323.056 138.868 324.145 127.859 321.291C127.257 321.135 126.647 320.968 126.031 320.8H126.029L126.023 320.798C121.394 319.534 116.455 318.187 112.446 320.591C108.008 323.254 107.253 328.822 106.502 334.366C105.738 340.005 104.977 345.62 100.345 348.123C97.0906 349.882 93.1025 349.233 89.5126 348.342C73.6483 344.404 58.7679 336.564 46.5507 325.704C45.3733 324.658 44.1601 323.482 43.83 321.942C42.8405 317.322 49.6606 315.4 54.3076 316.255C62.2014 317.708 69.7515 320.999 76.1894 325.792C78.4463 327.472 81.8798 325.512 82.8359 322.866C83.6536 320.602 83.2911 318.143 82.9355 315.734C82.8754 315.326 82.8147 314.92 82.7607 314.517C80.4038 296.902 91.4548 278.382 108.076 272.091C98.013 257.406 94.1868 238.589 97.7148 221.14C101.243 203.69 112.079 187.839 127.057 178.216C128.302 177.416 129.587 176.646 130.874 175.874C135.77 172.939 140.709 169.978 143.728 165.225C147.541 159.222 145.867 149.151 138.892 147.767C132.319 154.885 121.628 157.896 112.307 155.254C102.985 152.612 95.4634 144.439 93.6035 134.93L75.0429 141.199C80.5344 136.967 87.0377 134.057 93.8525 132.783L95.8144 124.281C84.0089 123.519 72.0368 125.461 61.0781 129.917C67.8217 124.841 76.4023 122.263 84.8271 122.779C93.3961 123.303 102.107 119.11 107.042 112.085C103.954 111 101.179 109.04 99.123 106.494C102.272 104.784 106.086 104.342 109.543 105.284L103.561 108.827C117.27 111.429 132.971 115.52 138.761 128.215C133.208 123.192 127.403 118.023 120.236 115.854C113.07 113.684 104.127 115.441 100.274 121.862C101.872 122.131 103.369 122.963 104.442 124.176L99.1035 124.746C97.6043 126.903 97.1097 129.729 97.7871 132.267C100.278 131.306 103.114 131.267 105.63 132.16C103.066 133.625 100.183 134.528 97.2421 134.787C97.5441 144.203 106.407 151.871 115.77 152.905C125.134 153.938 134.431 149.508 141.403 143.172C150.822 149.239 151.151 165.22 141.989 171.669C124.961 183.656 107.042 197.356 101.22 217.35C100.08 221.264 99.4626 225.521 100.788 229.376C101.862 232.501 104.111 235.069 106.435 237.416C118.376 249.472 133.852 257.983 150.428 261.611C153.646 262.315 157.382 262.721 159.895 260.592C162.409 258.463 161.365 253.076 158.085 253.378C146.567 254.44 138.736 242.181 134.422 231.45C130.108 220.718 124.44 208.005 112.999 206.305C120.103 205.594 126.947 209.964 131.163 215.726C135.379 221.488 137.464 228.492 139.474 235.342C151.05 233.134 162.995 232.864 174.66 234.546C174.027 225.562 173.444 216.224 176.751 207.846C181.392 196.09 194.041 188.011 206.659 188.745C205.542 192.184 201.53 192.871 197.726 193.523C196.815 193.679 195.916 193.834 195.071 194.023C187.287 195.767 181.638 202.927 179.375 210.577C177.112 218.226 177.624 226.384 178.155 234.343L195.048 234.2L217.061 205.785C213.631 216.475 207.01 226.12 198.268 233.166C205.869 229.167 215.526 236.031 217.68 244.345C219.833 252.66 216.873 261.349 213.95 269.425L226.268 269.527C230.047 258.46 232.697 247.007 234.166 235.406C230.066 237.903 225.14 239.018 220.364 238.532C223.752 234.063 228.567 230.695 233.926 229.044L232.884 218.961C228.002 223.443 221.519 226.143 214.899 226.452C219.374 220.617 224.808 215.521 230.918 211.43C227.42 198.372 219.033 186.687 207.782 179.193C205.664 177.782 203.435 176.501 201.207 175.221L199.278 174.109C194.792 171.499 190.446 168.741 187.179 164.763C181.829 158.25 181.303 146.633 188.809 142.799C194.856 150.307 206.022 153.176 214.939 149.513C223.857 145.85 229.781 135.958 228.804 126.368L223.164 125.976C227.428 125.478 228.515 118.295 224.589 116.558C222.791 117.659 220.471 117.858 218.512 117.079L223.612 113.302C216.093 108.731 206.288 108.166 198.294 111.843C190.3 115.521 184.348 123.333 182.927 132.017C181.712 124.03 186.239 115.842 192.978 111.388C199.719 106.934 208.27 105.843 216.272 106.953L215.057 102.541C216.869 101.933 218.881 101.94 220.689 102.559C218.559 101.129 216.925 98.9735 216.125 96.5355L221.552 95.3451C218.748 94.735 216.216 92.9656 214.679 90.5433C210.351 92.342 205.566 93.0256 200.908 92.5091L218.563 86.8763C226.707 84.2783 232.704 76.0563 232.689 67.5082C215.74 62.9005 197.054 65.039 181.583 73.3568C181.996 71.4767 183.679 69.9462 185.59 69.7142C180.925 67.1012 175.799 65.3141 170.52 64.4613C168.891 69.2347 165.57 73.4115 161.286 76.0746C160.914 71.5844 162.832 66.9638 166.273 64.056L160.652 63.2669C158.506 68.438 154.772 72.9376 150.085 76.0003C150.205 71.7466 151.365 67.5253 153.438 63.8089L140.802 75.432C139.828 71.9777 141.118 67.9967 143.933 65.7699C139.195 66.3813 134.676 68.5806 131.271 71.932C134.22 72.8338 136.676 75.2097 137.676 78.1263C124.732 68.4519 105.962 67.3553 91.9794 75.4564C91.6852 82.0513 97.2955 87.7396 103.574 89.7787C109.853 91.8177 116.654 91.0499 123.208 90.2611C122.282 92.9242 118.987 94.4839 116.341 93.5121L112.933 101.127C112.386 102.348 112.485 104.484 113.8 104.24C110.672 106.004 106.091 103.753 105.577 100.199C107.572 100.092 109.705 99.9358 111.282 98.7093C112.859 97.4829 113.412 94.7678 111.831 93.5462C98.9596 91.9655 86.4385 87.5913 75.3818 80.8148C80.2811 79.3385 84.7366 76.7992 89.1992 74.2562C91.613 72.8807 94.0293 71.5045 96.5185 70.2943C103.61 66.8465 112.187 64.807 119.26 68.2933C125.136 71.1902 131.765 68.5082 138.057 65.9632C139.2 65.5008 140.332 65.0435 141.446 64.6244ZM108.98 244.739C106.39 243.41 103.185 242.867 100.589 244.185C100.01 245.565 101.057 247.168 102.397 247.834C103.412 248.339 104.548 248.476 105.683 248.613H105.685C106.047 248.656 106.41 248.701 106.769 248.756C108.474 249.021 110.135 249.577 111.657 250.392C113.256 251.248 114.769 253.509 113.345 254.631C112.76 255.091 111.942 255.059 111.2 255.004L102.832 254.39C104.872 259.94 107.473 265.283 110.582 270.313C110.861 270.764 111.234 271.266 111.765 271.271C119.963 271.345 129.117 272.492 134.312 278.834C135.297 280.036 136.105 281.774 135.261 283.078C130.499 277.328 123.049 273.904 115.584 274.033C108.119 274.162 100.793 277.841 96.2324 283.752C100.258 286.447 103.458 290.357 105.303 294.835C105.86 296.188 105.756 298.4 104.294 298.369L95.5107 287.615C95.1183 287.134 94.6463 286.613 94.0263 286.594C93.5289 286.579 93.0899 286.896 92.6953 287.2C91.8409 287.856 90.9548 288.553 90.5087 289.534C90.0627 290.514 90.2281 291.865 91.1572 292.41C95.1168 294.736 98.2948 298.368 100.074 302.601C100.517 303.654 100.796 305.058 99.9121 305.782C98.7743 306.713 97.1601 305.513 96.204 304.396L88.0546 294.872C86.1037 299.944 85.2089 305.419 85.4433 310.848C85.4904 311.938 85.5788 313.044 85.6679 314.154C86.0085 318.394 86.3535 322.69 84.3896 326.368C83.5282 327.98 82.0628 329.461 80.2382 329.579C79.204 329.647 78.1967 329.268 77.2421 328.865C74.6259 327.758 72.0478 326.399 69.4706 325.039C62.8365 321.54 56.2069 318.043 48.9423 318.877C47.9503 318.991 46.7151 319.481 46.7539 320.479C46.7714 320.926 47.0623 321.31 47.3456 321.656C57.8195 334.447 74.1985 340.65 90.0537 345.333C92.6467 346.099 95.3799 346.845 98.0205 346.263C100.661 345.681 103.112 343.3 102.793 340.616C101.949 333.512 104.175 326.096 108.791 320.631C110.634 318.449 112.965 316.508 115.761 315.927C119.195 315.214 122.552 316.628 125.857 318.022C126.707 318.38 127.553 318.736 128.395 319.055C134.858 321.498 142.121 321.765 148.745 319.802C146.156 319.768 144.912 316.663 144.375 314.129C140.898 297.715 139.049 280.956 138.865 264.179C138.845 262.355 137.565 260.741 136.021 259.769C134.715 258.946 133.226 258.487 131.744 258.032C131.476 257.949 131.207 257.867 130.94 257.783C125.546 256.073 120.462 253.387 116.011 249.892C115.45 249.452 114.897 248.997 114.345 248.543C112.641 247.143 110.936 245.742 108.98 244.739ZM245.2 279.02C237.051 273.015 226.278 272.051 216.16 272.357C215.781 272.368 215.362 272.398 215.095 272.667C214.892 272.872 214.824 273.17 214.765 273.452L209.214 299.79C207.699 306.978 205.859 314.727 200.218 319.432C207.139 322.814 215.512 323.079 222.634 320.142C223.706 319.7 224.769 319.185 225.832 318.67C228.858 317.205 231.89 315.736 235.187 315.918C238.651 316.11 241.929 318.319 243.408 321.456C243.982 322.673 244.293 323.986 244.603 325.3C244.872 326.437 245.141 327.574 245.581 328.652C247.737 333.934 253.777 336.85 259.481 336.806C265.186 336.762 270.59 334.294 275.518 331.421C285.144 325.809 293.857 318.312 299.666 308.804C300.04 308.192 300.416 307.489 300.248 306.791C299.959 305.59 298.378 305.318 297.146 305.415C289.331 306.034 282.985 311.198 276.779 316.248L276.778 316.249L276.773 316.253L276.77 316.256C275.454 317.328 274.143 318.394 272.826 319.41C271.591 320.364 270.211 321.324 268.651 321.323C265.828 321.321 264.046 318.324 263.123 315.656C261.972 312.328 261.214 308.847 260.459 305.375V305.372L260.458 305.371V305.368H260.457L259.97 303.146C258.815 297.97 257.477 292.892 254.647 288.452C254.52 288.251 254.374 288.041 254.151 287.959C253.738 287.809 253.328 288.167 253.033 288.493L246.932 295.228C246.312 295.912 245.051 295.405 244.73 294.539C244.41 293.674 244.737 292.71 245.133 291.876C246.652 288.674 249.255 285.998 252.413 284.389C251.436 282.705 248.976 282.478 247.205 283.288C245.816 283.924 244.717 285.012 243.622 286.095C243.321 286.393 243.021 286.69 242.715 286.977C241.295 288.31 239.52 289.523 237.577 289.385C237.188 289.357 236.783 289.266 236.492 289.005C235.717 288.31 236.22 287.032 236.822 286.182C238.968 283.153 241.875 280.669 245.2 279.02ZM207.129 294.915C202.798 299.162 197.023 301.708 191.1 303.011C185.176 304.314 179.064 304.45 172.999 304.427C164.207 304.394 155.416 304.036 146.65 303.354C146.108 303.312 145.957 304.083 146.018 304.624C146.357 307.679 146.84 310.719 147.462 313.729C147.665 314.711 147.927 315.766 148.701 316.403C149.337 316.926 150.197 317.063 151.013 317.175C164.711 319.066 178.628 319.374 192.396 318.093C193.881 317.955 195.385 317.794 196.774 317.251C200.746 315.701 202.935 311.412 203.977 307.278C204.318 305.92 204.577 304.536 204.837 303.154C205.368 300.325 205.898 297.501 207.129 294.915ZM357.624 229.818C349.205 228.521 340.629 230.373 332.444 232.734C321.385 235.923 310.363 240.2 301.608 247.671C296.126 252.35 291.747 258.091 287.361 263.841C284.264 267.902 281.164 271.968 277.669 275.667C272.423 281.22 266.287 285.93 259.567 289.564C258.928 289.909 259.074 290.854 259.31 291.541L263.703 304.348C267.444 303.019 270.753 300.743 274.03 298.49L274.035 298.486L274.041 298.482L274.047 298.479C274.284 298.316 274.52 298.153 274.757 297.991C292.024 286.151 311.482 275.957 332.41 275.363C335.221 275.283 338.05 275.377 340.876 275.47C346.789 275.666 352.693 275.861 358.409 274.467C364.982 272.865 371.116 269.045 374.893 263.433C378.671 257.821 379.871 250.383 377.419 244.077C374.332 236.139 366.043 231.114 357.624 229.818ZM183.455 301.048C180.347 297.152 175.266 294.92 170.294 295.265C168.284 295.405 166.317 295.937 164.435 296.657C161.835 297.652 159.276 299.102 157.754 301.433C159.595 301.954 161.373 300.912 163.084 299.91C163.447 299.698 163.807 299.488 164.164 299.294C168.738 296.812 174.671 297.068 179.014 299.936L179.027 299.945C180.388 300.843 182.131 301.994 183.455 301.048ZM174.63 300.249C172.013 299.707 169.268 299.789 166.688 300.489C166.111 300.645 165.452 300.926 165.329 301.512L176.644 301.463C176.314 300.718 175.428 300.415 174.63 300.249ZM146.912 296.951C146.416 296.641 145.857 296.342 145.278 296.424C144.7 296.507 144.188 297.164 144.468 297.677C145.328 299.251 146.786 300.489 148.478 301.082C149.496 301.439 150.698 301.546 151.596 300.948C150.244 299.393 148.66 298.041 146.912 296.951ZM154.017 297.634C153.335 297.6 152.438 297.726 152.315 298.397C152.257 298.717 152.42 299.031 152.577 299.315C153.04 300.15 153.72 301.108 154.67 301.014C155.406 300.941 155.904 300.253 156.304 299.63C156.637 299.11 156.322 298.374 155.803 298.039C155.283 297.705 154.634 297.665 154.017 297.634ZM188.617 297.543L184.874 297.712C184.471 297.73 183.954 297.847 183.904 298.247C183.882 298.426 183.972 298.598 184.059 298.756C184.388 299.355 184.74 299.978 185.31 300.356C185.881 300.733 186.74 300.77 187.184 300.249C187.336 300.071 187.426 299.847 187.515 299.624C187.624 299.351 187.733 299.079 187.956 298.896C188.104 298.774 188.285 298.708 188.467 298.642C188.605 298.591 188.744 298.54 188.869 298.464C189.158 298.289 189.343 297.835 189.075 297.629C188.949 297.533 188.775 297.536 188.617 297.543ZM202.467 293.993C197.697 293.671 193.26 296.476 189.798 299.773C190.05 300.355 190.909 300.202 191.491 299.95L203.319 294.83C203.615 294.438 202.957 294.026 202.467 293.993ZM154.238 292.978C152.115 293.01 150.029 294.057 148.733 295.74C148.893 296.351 149.641 296.632 150.267 296.54C150.717 296.475 151.13 296.274 151.542 296.073C151.701 295.995 151.861 295.916 152.022 295.846C153.626 295.151 155.555 295.254 157.075 296.117C157.191 296.182 157.307 296.253 157.423 296.324L157.424 296.325C157.893 296.611 158.37 296.901 158.91 296.902C159.584 296.902 160.252 296.091 159.825 295.57C158.478 293.928 156.362 292.945 154.238 292.978ZM185.924 292.803C184.009 292.821 182.033 293.624 180.939 295.197C180.84 295.34 180.745 295.495 180.726 295.668C180.672 296.138 181.204 296.497 181.676 296.471C182.079 296.449 182.442 296.244 182.797 296.042C182.857 296.008 182.917 295.975 182.977 295.942C184.714 294.985 186.853 294.788 188.735 295.413C188.793 295.433 188.851 295.452 188.91 295.472C188.967 295.491 189.024 295.512 189.082 295.532L189.105 295.539C190.237 295.929 191.534 296.376 192.317 295.542C192.393 295.014 191.863 294.615 191.392 294.364C189.701 293.464 187.839 292.785 185.924 292.803ZM156.055 288.381C152.978 288.222 150.119 289.826 147.458 291.378C146.379 292.008 145.14 292.962 145.368 294.19C146.107 294.771 147.207 294.615 148.023 294.151C148.536 293.859 148.979 293.467 149.423 293.075L149.424 293.074C149.686 292.842 149.948 292.609 150.226 292.398C151.719 291.258 153.664 290.733 155.53 290.95C157.61 291.191 159.485 292.292 161.205 293.486L161.262 293.525C161.747 293.862 162.243 294.208 162.817 294.341C163.414 294.48 164.124 294.329 164.462 293.818C164.795 293.312 164.662 292.608 164.305 292.118C163.947 291.629 163.411 291.308 162.889 291.001C160.763 289.755 158.516 288.508 156.055 288.381ZM196.893 291.946C194.287 288.971 190.203 287.36 186.268 287.752C182.334 288.145 178.65 290.532 176.684 293.962C177.094 294.503 177.948 294.323 178.55 294.009C179.329 293.603 180.03 293.067 180.729 292.531C181.398 292.019 182.066 291.506 182.805 291.107C184.887 289.98 187.481 289.851 189.666 290.763C190.303 291.029 190.901 291.376 191.499 291.723C192.014 292.022 192.53 292.321 193.071 292.569C194.24 293.104 195.632 293.381 196.796 292.836C196.925 292.776 197.06 292.697 197.114 292.565C197.203 292.351 197.045 292.12 196.893 291.946ZM191.835 283.299C188.297 282.123 184.197 282.049 181.032 284.021C179.883 284.737 178.903 285.69 177.933 286.634L174.362 290.11C173.8 290.657 173.196 291.306 173.235 292.089C173.275 292.872 174.45 293.457 174.855 292.786C177.068 289.122 180.916 286.487 185.133 285.748C189.349 285.01 193.863 286.181 197.188 288.876C197.534 289.156 197.869 289.453 198.203 289.749C198.992 290.448 199.78 291.146 200.711 291.629C201.188 291.877 202.004 291.883 202.024 291.346C202.031 291.17 201.93 291.009 201.831 290.863C199.443 287.343 195.872 284.641 191.835 283.299ZM157.203 283.704C152.622 283.099 147.689 284.637 144.639 288.108C144.101 288.719 143.613 289.407 143.428 290.201C143.243 290.994 143.417 291.912 144.031 292.447C146.391 288.781 150.584 286.362 154.939 286.157C159.295 285.951 163.697 287.964 166.392 291.392C166.421 291.429 166.45 291.466 166.478 291.503L166.553 291.599C166.919 292.073 167.292 292.556 167.813 292.841C168.411 293.168 169.281 293.126 169.645 292.55C170.08 291.862 169.555 290.981 169.019 290.368C165.975 286.892 161.784 284.31 157.203 283.704ZM209.18 286.836C208.783 286.583 208.298 286.976 207.994 287.335L204.933 290.955C204.57 291.384 205.043 292.101 205.602 292.147C206.163 292.193 206.665 291.813 207.058 291.411C208.256 290.186 209.019 288.543 209.18 286.836ZM174.393 286.276C172.972 284.696 170.183 284.653 168.715 286.19C168.602 286.308 168.492 286.443 168.472 286.605C168.44 286.862 168.639 287.084 168.822 287.266L170.386 288.817C170.865 289.292 171.536 289.806 172.144 289.515C172.422 289.382 172.6 289.109 172.765 288.849L174.393 286.276ZM205.507 285.428C204.507 284.866 203.326 284.631 202.187 284.768C201.752 284.82 201.298 284.939 200.992 285.253C200.686 285.567 200.597 286.125 200.905 286.437L203.001 288.56C203.229 288.791 203.518 289.042 203.836 288.973C204.046 288.927 204.198 288.752 204.335 288.586L205.779 286.842C205.945 286.642 206.12 286.416 206.109 286.157C206.096 285.827 205.794 285.59 205.507 285.428ZM178.05 282.41C174.693 280.269 170.111 280.231 166.72 282.317C166.13 282.679 165.524 283.189 165.478 283.879C165.433 284.569 166.371 285.21 166.836 284.698C168.709 282.633 172.132 282.204 174.457 283.743C175.598 284.499 177.238 284.396 178.275 283.503C178.765 283.452 178.465 282.674 178.05 282.41ZM143.537 280.868C143.413 280.893 143.314 280.984 143.23 281.079C142.631 281.766 142.607 282.886 143.176 283.598C143.745 284.31 144.843 284.533 145.644 284.1C146.055 283.878 146.401 283.437 146.319 282.978C146.247 282.569 145.875 282.291 145.531 282.057L144.042 281.042C143.89 280.939 143.717 280.831 143.537 280.868ZM209.991 283.062C207.149 279.539 201.326 278.967 197.852 281.868C197.647 282.04 197.441 282.234 197.354 282.488C197.113 283.197 197.975 283.861 198.722 283.801C199.262 283.758 199.744 283.494 200.226 283.231C200.409 283.13 200.594 283.03 200.781 282.942C202.433 282.163 204.419 282.349 206.096 283.073C206.152 283.097 206.209 283.122 206.266 283.148C206.367 283.194 206.469 283.241 206.57 283.288C207.071 283.522 207.574 283.755 208.117 283.837C208.832 283.945 209.666 283.707 209.991 283.062ZM171.559 276.001C167.789 275.753 163.727 277.444 161.982 280.794C161.749 281.243 161.569 281.825 161.879 282.225C162.434 282.943 163.522 282.173 164.135 281.503C166.023 279.44 168.746 278.162 171.54 278.028C174.334 277.894 177.167 278.904 179.245 280.778L179.289 280.818L179.372 280.893C179.859 281.336 180.379 281.81 181.027 281.827C181.733 281.846 182.368 280.862 181.809 280.432C178.813 278.131 175.328 276.25 171.559 276.001ZM145.543 277.023C144.689 276.448 143.299 275.99 142.835 276.909C142.435 277.7 143.283 278.527 144.026 279.011L147.782 281.458C148.312 281.804 148.989 282.157 149.539 281.844C150.049 281.554 150.127 280.807 149.861 280.284C149.595 279.76 149.088 279.409 148.602 279.081L145.543 277.023ZM209.498 277.208C204.709 274.304 197.881 275.41 194.254 279.678C193.884 280.113 193.53 280.709 193.784 281.22C194.024 281.704 194.708 281.805 195.205 281.595C195.629 281.416 195.956 281.078 196.279 280.745L196.372 280.65C196.397 280.624 196.422 280.599 196.447 280.574C199.347 277.656 204.26 277.004 207.821 279.064C208.712 279.579 210.052 280.147 210.569 279.258C211.001 278.517 210.232 277.653 209.498 277.208ZM166.488 274.245C164.741 273.942 162.748 273.697 161.37 274.813C159.441 276.376 157.911 278.429 156.965 280.725C157.896 280.931 158.858 280.453 159.555 279.802C159.964 279.419 160.311 278.978 160.658 278.536C160.901 278.227 161.145 277.916 161.41 277.626C162.409 276.535 163.725 275.738 165.154 275.357C165.771 275.192 166.581 274.876 166.488 274.245ZM149.167 274.07C147.333 272.932 145.024 272.384 142.982 273.081C142.775 273.836 143.713 274.348 144.452 274.606C147.296 275.598 149.878 277.333 151.87 279.592L151.936 279.666C152.225 279.995 152.52 280.332 152.914 280.517C153.338 280.716 153.917 280.678 154.19 280.297C154.562 279.779 154.163 279.073 153.769 278.573C152.436 276.877 151 275.207 149.167 274.07ZM208.438 270.772C206.431 270.13 204.25 270.348 202.185 270.766C197.295 271.755 192.355 274.073 189.784 278.349C189.66 278.556 189.539 278.775 189.518 279.015C189.447 279.789 190.47 280.271 191.205 280.018C191.867 279.79 192.328 279.217 192.772 278.666C192.822 278.605 192.872 278.545 192.921 278.485C197.016 273.476 204.814 271.967 210.482 275.086C211.226 274.458 211.269 273.254 210.771 272.417C210.274 271.581 209.365 271.068 208.438 270.772ZM177.299 274.38C177.156 274.572 177.106 274.829 177.165 275.061C179.136 275.767 180.973 276.849 182.546 278.231C182.596 278.275 182.646 278.319 182.695 278.364C182.755 278.417 182.815 278.47 182.874 278.524C183.41 279.006 183.949 279.492 184.602 279.787C185.389 280.143 186.411 280.152 187.026 279.547C185.664 278.502 184.544 277.142 183.781 275.604C183.37 274.775 182.273 274.624 181.35 274.578L177.299 274.38ZM152.113 273.416C152.705 274.345 153.381 275.22 154.13 276.027C154.561 276.491 155.104 276.966 155.735 276.914C156.39 276.86 156.831 276.286 157.264 275.722C157.727 275.118 158.182 274.526 158.882 274.592C159.245 273.993 158.253 273.513 157.553 273.502L152.113 273.416ZM191.245 273.914C190.882 273.568 190.301 273.646 189.81 273.747L185.522 274.633L187.249 276.081C187.845 276.581 188.728 276.064 189.319 275.559L191.245 273.914ZM212.375 237.897C211.535 236.643 210.024 235.726 208.541 236.008C193.351 238.901 177.844 238.007 162.339 237.114C156.495 236.777 150.651 236.44 144.825 236.306C143.785 236.282 142.691 236.277 141.777 236.775C140.864 237.272 140.235 238.455 140.704 239.383C143.361 244.639 148.85 247.994 154.542 249.507C154.951 249.616 155.37 249.722 155.793 249.829C159.475 250.766 163.529 251.798 164.866 255.225C165.881 257.825 164.687 260.916 162.563 262.728C160.44 264.54 157.583 265.263 154.8 265.467C149.784 265.835 144.666 264.661 140.312 262.144L142.109 268.944C142.187 269.237 142.279 269.552 142.522 269.733C142.734 269.889 143.014 269.909 143.276 269.923L169.088 271.28C172.851 271.477 176.618 271.675 180.385 271.566C190.949 271.26 201.436 268.503 210.784 263.571C211.323 263.286 211.873 262.983 212.262 262.513C212.725 261.953 212.908 261.218 213.062 260.508C214.372 254.503 214.598 248.263 213.727 242.179C213.514 240.685 213.215 239.151 212.375 237.897ZM211.896 267.063C211.752 266.743 211.277 266.839 210.959 266.988C210.103 267.387 209.095 268.335 209.686 269.072C210.046 269.52 210.803 269.424 211.216 269.024C211.628 268.624 211.78 268.032 211.898 267.47C211.927 267.335 211.953 267.189 211.896 267.063ZM100.259 234.806C100.092 235.445 100.014 236.108 100.029 236.769C100.042 237.354 100.155 237.991 100.593 238.38C100.954 238.702 101.442 238.777 101.933 238.853C102.366 238.92 102.803 238.988 103.158 239.226C103.409 239.105 103.269 238.726 103.1 238.505L100.259 234.806ZM149.611 147.125C150.806 146.451 152.342 146.427 153.559 147.062C154.775 147.697 155.633 148.972 155.763 150.338C155.858 151.338 155.662 152.541 156.441 153.175C157.105 150.857 158.567 148.776 160.522 147.365C161.255 149.453 161.986 151.542 162.719 153.63C163.481 152.68 164.343 151.81 165.287 151.04C165.624 150.766 165.992 150.495 166.423 150.434C166.853 150.373 167.354 150.6 167.453 151.023C167.556 151.464 167.209 151.871 166.889 152.191C166.003 153.076 165.117 153.96 164.231 154.845C163.769 155.307 163.242 155.799 162.589 155.829C161.609 155.875 160.913 154.873 160.622 153.936C160.331 152.999 160.203 151.943 159.509 151.249C158.9 152.789 157.887 154.167 156.598 155.206C156.027 155.666 155.174 156.056 154.61 155.587C154.411 155.422 154.295 155.177 154.214 154.931C153.877 153.916 154.026 152.814 154.013 151.744C153.999 150.675 153.752 149.493 152.885 148.867C151.856 148.123 150.139 148.28 149.611 147.125ZM154.652 115.526C156.911 115.251 159.197 115.205 161.465 115.387C162.439 115.466 163.473 115.611 164.219 116.244C164.965 116.876 165.233 118.158 164.514 118.82C160.985 122.063 158.919 126.841 158.973 131.634C160.281 132.483 161.611 133.343 163.102 133.802C164.592 134.261 166.291 134.276 167.636 133.486C168.593 132.923 169.289 132.01 170.17 131.334C171.051 130.659 172.313 130.24 173.257 130.825C172.06 131.927 170.862 133.029 169.665 134.131C168.233 135.449 166.455 136.867 164.56 136.423C163.56 136.189 162.753 135.465 161.823 135.028C159.968 134.155 157.791 134.48 155.786 134.91C153.781 135.341 151.689 135.857 149.712 135.315C147.734 134.772 146 132.717 146.619 130.762C147.864 132.584 150.032 133.738 152.238 133.755C153.085 133.762 153.959 133.6 154.661 133.125C156.098 132.154 156.435 130.219 156.647 128.497C156.789 127.349 156.867 126.011 156.023 125.219C154.449 123.742 153.071 122.056 151.935 120.22C151.439 119.419 150.974 118.484 151.21 117.573C151.567 116.196 153.241 115.698 154.652 115.526ZM128.109 103.294C131.449 102.447 134.907 103.943 137.928 105.6C138.608 105.973 139.308 106.38 139.736 107.027C140.165 107.673 140.228 108.631 139.669 109.168C138.733 110.068 137.248 109.142 136.191 108.388C134.341 107.068 132.116 106.277 129.848 106.131C129.118 106.084 128.35 106.095 127.707 105.746C127.064 105.398 126.63 104.529 127.03 103.917C127.263 103.561 127.697 103.399 128.109 103.294ZM187.336 100.534C187.999 100.403 188.789 100.34 189.249 100.834C189.767 101.391 189.508 102.354 188.934 102.851C188.359 103.348 187.58 103.516 186.848 103.719C184.632 104.333 182.548 105.416 180.773 106.876C180.091 107.438 179.282 108.099 178.431 107.863C177.529 107.612 177.187 106.412 177.535 105.543C177.883 104.675 178.692 104.089 179.489 103.599C181.895 102.122 184.566 101.078 187.336 100.534Z" fill="#161400"/>
</g>
</g>
</g>
</svg>
