<svg width="440" height="450" viewBox="0 0 440 450" fill="none" xmlns="http://www.w3.org/2000/svg">
<path fill-rule="evenodd" clip-rule="evenodd" d="M116.511 126.281C126.907 117.211 140.828 113.653 153.617 108.479C190.618 93.5085 219.675 64.0189 254.165 43.9283C271.233 33.986 291.558 26.2214 310.461 31.9501C323.617 35.937 334.56 46.5953 338.892 59.6418C347.071 84.2728 332.272 109.808 323.969 134.398C308.125 181.322 316.163 233.38 333.613 279.732C337.429 289.868 341.71 299.94 343.492 310.623C347.634 335.453 337.371 361.356 319.98 379.556C302.589 397.756 278.807 408.87 254.327 414.738C224.324 421.93 192.572 421.707 162.672 414.096C147.52 410.239 132.62 404.386 120.336 394.714C108.051 385.042 98.5487 371.211 96.3385 355.732C93.0102 332.424 106.106 310.011 108.415 286.58C109.443 276.153 108.313 265.646 107.107 255.239C105.317 239.798 103.355 224.376 101.223 208.979C99.2127 194.468 97.0459 179.803 98.5034 165.227C99.9609 150.65 105.472 135.912 116.511 126.281Z" fill="#F6B371"/>
<path d="M250.823 315.096C251.009 317.513 251.133 320.017 250.281 322.286C248.792 326.25 244.748 328.55 240.999 330.518C218.983 342.075 196.72 353.451 173.043 361.049C171.99 359.336 166.475 349.881 170.425 346.501C178.967 339.191 223.3 309.559 223.3 309.559C223.3 309.559 218.202 299.678 221.064 296.78C226.559 291.215 242.692 290.321 246.215 291.039C248.571 291.519 250.679 313.238 250.823 315.096Z" fill="white"/>
<path fill-rule="evenodd" clip-rule="evenodd" d="M182.759 343.627C182.759 343.627 183.555 345.371 186.06 345.371C188.564 345.371 193.264 335.725 195.805 330.601C198.371 325.422 198.221 325.363 202.748 314.43C207.275 303.498 198.329 287.105 198.329 287.105C198.329 287.105 183.698 285.155 181.211 287.105C177.312 290.159 179.801 309.665 179.801 309.665L182.759 343.627Z" fill="white"/>
<path d="M252.911 185.071C245.338 182.347 235.371 181.196 228.301 177.353C228.59 177.313 226.789 172.189 228.448 166.936C230.298 161.078 300.086 195.303 304.026 199.163C304.44 199.569 314.137 210.779 310.406 211.535C308.139 211.995 306.69 210.443 298.443 205.911C290.196 201.379 291.564 209.192 290.196 209.373C289.011 209.53 288.547 207.554 288.564 207.837C278.568 197.726 266.289 189.885 252.911 185.071Z" fill="white"/>
<path fill-rule="evenodd" clip-rule="evenodd" d="M290.936 81.9755C293.519 86.0583 294.121 88.6235 294.778 93.411C290.899 96.5643 246.313 124.888 214.005 137.85L214.606 137.804C220.068 137.367 224.115 136.407 225.224 135.064C230.745 155.589 230.62 177.603 224.867 198.064C224.058 200.943 227.417 203.068 230.233 204.165L230.378 204.221C250.335 211.802 269.283 222.035 286.567 234.567C276.645 239.327 267.558 245.818 259.837 253.659L259.016 254.5C256.283 257.317 253.547 260.233 249.997 261.863C246.092 263.656 240.817 263.368 238.24 259.929L242.921 268.583C232.614 274.652 220.998 278.484 209.104 279.744L208.478 279.808C207.201 279.933 205.807 280 204.753 279.27C203.997 278.747 203.55 277.9 203.149 277.067L187.403 244.013C184.533 237.973 181.731 231.82 180.645 225.232C178.29 210.942 183.648 196.284 181.48 181.964C179.158 166.636 168.05 154.315 161.45 140.287C158.908 134.886 155.163 126.999 158.306 118.423C161.45 109.848 197.099 110.892 224.867 103.574C260.724 94.1248 290.477 81.2504 290.936 81.9755Z" fill="white"/>
<ellipse cx="190.397" cy="85.8204" rx="21.2162" ry="25.6343" fill="white"/>
<path d="M219.279 165.943C218.572 169.003 214.867 170.953 211.927 169.848C211.536 169.701 211.36 169.256 211.232 168.858C209.549 163.635 208.437 158.229 207.923 152.765C207.83 151.776 207.759 150.759 208.042 149.806C208.657 147.733 211.115 146.414 213.184 147.048C214.592 147.479 215.679 148.651 216.342 149.967C217.004 151.283 217.3 152.748 217.589 154.193C218.067 156.578 218.544 158.963 219.021 161.348C219.324 162.865 219.627 164.436 219.279 165.943Z" fill="white"/>
<path d="M205.384 297.478C204.921 297.199 201.303 288.664 202.922 287.686C209.708 283.588 262.713 263.897 268.922 260.254C275.13 256.611 267.613 252.302 268.012 249.495C268.642 245.054 282.313 241.776 282.342 239.522C291.243 245.316 299.697 250.737 305.798 259.43C308.072 262.669 310.394 269.024 308.187 272.308C306.88 274.254 303.533 275.229 301.299 275.935C283.369 281.603 201.862 303.127 205.384 297.478Z" fill="white"/>
<path d="M173.681 365.057C172.179 377.586 168.955 389.907 164.129 401.565C163.25 403.69 162.206 405.923 160.24 407.115C158.273 408.306 155.143 407.8 154.434 405.613C148.93 388.655 146.204 370.799 146.397 352.972C146.405 352.248 146.427 351.488 146.794 350.864C147.352 349.916 148.526 349.558 149.595 349.295C155.067 347.948 160.639 347.014 166.251 346.501C166.873 346.796 165.068 362.248 173.681 365.057Z" fill="white"/>
<circle cx="314.8" cy="105.9" r="29.4" fill="#FFB61D"/>
<path fill-rule="evenodd" clip-rule="evenodd" d="M295.903 80.0635C296.747 83.7909 298.085 87.5221 301.223 86.9502C305.299 86.207 296.974 84.7359 352.09 79.6276C352.719 79.5692 351.614 78.3451 351.064 78.0317C348.168 76.3787 345.113 74.9771 341.972 73.8541C336.877 72.0323 295.419 77.9299 295.903 80.0635Z" fill="white"/>
<path fill-rule="evenodd" clip-rule="evenodd" d="M288.564 207.837C278.568 197.726 266.289 189.885 252.911 185.071C245.339 182.347 237.369 180.554 230.299 176.71C230.905 176.627 231.457 176.216 231.711 175.658C251.248 182.369 271.481 189.499 286.238 203.955C287.341 205.037 288.474 206.295 288.564 207.837Z" fill="#00160A"/>
<path fill-rule="evenodd" clip-rule="evenodd" d="M230.206 154.575C233.184 155.678 235.503 158.01 237.943 160.043C251.33 171.198 269.915 174.204 283.906 184.591C282.632 184.256 281.422 183.72 280.217 183.186C267.457 177.527 254.672 171.857 242.536 164.96C237.81 162.275 233.01 159.231 230.206 154.575L230.206 154.575Z" fill="#00160A"/>
<path d="M166.251 346.501C166.872 346.796 166.056 347.647 165.379 347.775C159.32 348.915 153.259 350.055 147.2 351.196C147.392 369.374 150.16 387.524 155.396 404.933C155.6 405.61 155.839 406.333 156.407 406.754C157.872 407.841 159.758 406.098 160.686 404.528C164.934 397.338 167.935 389.414 169.514 381.214C167.584 382.066 165.248 381.932 163.429 380.864C165.491 380.315 167.689 380.288 169.764 380.785C170.108 379.553 170.452 378.32 170.796 377.087C168.515 376.546 166.233 376.004 163.952 375.462C166.238 374.946 168.651 375 170.912 375.616C171.253 374.295 171.594 372.973 171.935 371.651C169.152 371.424 166.397 370.844 163.758 369.93C166.573 369.406 169.548 369.778 172.148 370.977C171.703 368.91 172.289 366.648 173.681 365.057C172.179 377.585 168.954 389.907 164.128 401.566C163.249 403.69 162.206 405.923 160.24 407.114C158.273 408.306 155.143 407.8 154.433 405.613C148.93 388.655 146.204 370.799 146.397 352.972C146.405 352.249 146.427 351.488 146.793 350.864C147.352 349.916 148.526 349.558 149.595 349.295C155.067 347.949 160.639 347.014 166.251 346.501ZM151.025 351.112C151.691 367.644 154.031 384.11 157.996 400.174C158.333 401.541 158.659 403.078 157.931 404.282C153.673 388.253 151.061 371.786 150.15 355.225C150.071 353.786 150.06 352.181 151.025 351.112ZM282.342 238.323C291.243 244.116 299.021 251.627 305.123 260.32C307.396 263.559 309.449 267.966 307.242 271.25C305.935 273.195 303.533 274.029 301.298 274.736C283.369 280.403 265.333 285.733 247.204 290.724C248.98 298.75 250.191 306.901 250.823 315.097C251.009 317.513 251.133 320.018 250.281 322.286C248.791 326.25 244.749 328.551 241 330.519C218.983 342.076 196.72 353.452 173.043 361.049C171.507 357.799 169.97 354.549 168.433 351.299C167.302 348.906 168.803 346.005 170.892 344.38C172.981 342.755 175.583 341.94 177.825 340.532C180.066 339.125 182.062 336.724 181.691 334.104C179.654 319.704 178.853 305.129 179.298 290.593C179.334 289.445 179.435 288.165 180.289 287.397C180.942 286.809 181.875 286.677 182.749 286.589C188.137 286.045 193.592 286.164 198.952 286.943C193.771 287.145 188.59 287.348 183.41 287.551C182.674 287.58 181.888 287.625 181.297 288.065C180.401 288.732 180.298 290.013 180.281 291.13C180.032 307.676 181.029 324.242 183.261 340.639C183.426 341.852 183.678 343.201 184.671 343.916C185.666 344.632 187.514 343.916 187.249 342.721C183.329 325.087 182.012 306.876 183.353 288.862C183.882 306.002 184.422 323.238 187.795 340.051C188.15 341.816 188.355 344.047 186.846 345.029C185.494 345.908 183.564 345.025 182.759 343.627C181.954 342.229 181.964 340.525 181.995 338.912C177.427 341.6 173 344.53 168.74 347.683C170.221 351.524 171.702 355.365 173.183 359.205C197.085 350.377 220.305 339.702 242.568 327.308C244.483 326.242 246.468 325.092 247.651 323.246C249.297 320.678 249.031 317.376 248.707 314.343C247.876 306.575 247.045 298.807 246.214 291.039C236.663 294.302 226.82 296.713 216.841 298.233C217.991 300.99 219.14 303.747 220.29 306.504C220.601 307.25 220.917 308.061 220.721 308.845C220.512 309.681 219.779 310.264 219.089 310.781C212.738 315.546 206.386 320.311 200.035 325.075C194.605 329.149 194.448 337.623 189.448 342.214C192.135 334.896 195.126 327.158 201.381 322.506C207.622 317.865 213.862 313.224 220.103 308.583C218.57 305.259 217.037 301.933 215.503 298.609C211.588 299.343 207.593 299.649 203.612 299.517C202.87 295.264 201.658 291.093 200.003 287.105C202.986 286.075 205.908 284.87 208.749 283.496C208.248 282.488 208.003 281.354 208.043 280.229C209.418 281.19 210.046 283.099 209.508 284.689C207.313 285.688 205.118 286.687 202.922 287.686C203.518 291.175 204.113 294.665 204.709 298.155C236.925 290.841 268.804 282.037 300.208 271.78C301.635 271.313 303.14 270.792 304.101 269.638C306.243 267.065 304.519 263.189 302.583 260.458C298.024 254.03 292.466 248.311 286.169 243.572C284.369 242.216 282.313 240.576 282.342 238.323ZM204.346 304.79C204.66 304.62 205.049 304.591 205.384 304.714C204.373 310.366 202.763 315.91 200.592 321.226C200.277 321.998 199.767 322.894 198.933 322.887C198.874 322.396 198.954 321.888 199.161 321.439C197.163 321.555 194.935 321.596 193.435 320.271C195.402 320.016 197.413 320.103 199.35 320.526C200.138 319.315 200.743 317.986 201.139 316.598C198.839 316.487 196.558 315.977 194.429 315.099C194.648 314.466 195.534 314.473 196.191 314.602C197.903 314.938 199.616 315.274 201.328 315.611C201.9 314.369 202.348 313.071 202.664 311.74C200.019 311.15 197.373 310.56 194.728 309.97C194.89 309.313 195.785 309.236 196.456 309.325C198.646 309.618 200.803 310.16 202.871 310.938C203.362 308.889 203.854 306.839 204.346 304.79ZM202.557 48.1838C207.282 48.3625 212.229 51.1609 213.427 55.7346C213.943 57.7019 213.733 59.7776 213.52 61.8C212.929 67.4126 212.339 73.0254 211.748 78.6379C211.041 85.3473 210.216 92.3843 206.325 97.8957C202.434 103.407 194.393 106.613 188.725 102.954C187.945 105.143 189.677 107.584 191.843 108.423C194.01 109.262 196.433 108.934 198.73 108.585C225.817 104.47 253.742 98.5516 275.567 81.9895C275.143 79.1234 276.648 76.069 279.179 74.6594C280.838 73.7358 283.567 72.1423 285.4 72.5237C287.943 73.0527 289.544 76.0627 291.158 78.1428C293.936 81.7228 294.859 86.3602 295.702 90.8127C295.968 92.2185 295.843 94.2131 294.424 94.4016C302.249 94.5336 310.061 95.4127 317.719 97.0227C318.323 95.4194 318.926 93.8155 319.53 92.2122C314.824 84.7951 301.761 85.4752 297.851 93.3411C296.655 91.9135 298.571 89.989 300.224 89.1311C300.114 89.1884 300.117 89.1824 300.221 89.1252C298.66 86.3238 297.356 83.3797 296.328 80.342C296.122 79.7339 295.926 79.1223 295.743 78.5071C295.376 77.277 295.054 76.0331 294.778 74.7795L295.156 75.5754C297.061 79.4662 299.153 82.143 301.032 86.2073C309.102 82.4739 317.566 81.6986 326.418 80.8567L326.099 80.9856C322.841 82.4038 320.894 86.3786 321.837 89.8186C325.962 89.7321 330.054 88.4291 333.468 86.1145C331.308 85.0836 329.653 83.0485 329.084 80.7239C333.182 82.7936 336.06 85.0594 334.497 86.884C332.312 89.4338 324.046 91.2508 321.193 91.6018C320.656 93.5723 320.119 95.5434 319.582 97.5139C326.494 99.438 333.038 102.678 338.758 107.01C342.369 109.744 345.698 115.345 342.218 118.244C349.496 118.349 356.774 118.455 364.051 118.56C365.486 118.58 367.516 119.524 366.813 120.775L273.001 120.823C271.709 120.824 269.958 119.372 271.105 118.779C276.354 119.06 281.631 118.828 286.835 118.085C284.747 113.484 284.041 108.266 284.834 103.276C286.032 95.7264 282.299 87.6274 275.78 83.636C247.177 104.016 210.598 108.651 175.663 112.255C171.421 112.693 166.879 113.249 163.677 116.066C160.337 119.003 159.235 123.875 159.823 128.283C160.411 132.692 162.448 136.761 164.546 140.683C173.411 157.251 184.233 173.968 184.515 192.757C184.657 202.212 182.063 211.619 182.894 221.038C183.672 229.857 187.397 238.109 191.069 246.164C195.377 255.617 199.685 265.069 203.994 274.522C204.491 275.613 205.033 276.757 206.02 277.437C207.663 278.567 209.883 278.026 211.791 277.444L233.348 270.861C235.463 270.215 237.972 269.106 238.147 266.902C238.243 265.688 237.549 264.567 236.882 263.548C234.899 260.517 232.915 257.485 230.931 254.453C235.453 256.178 239.975 257.903 244.498 259.628C245.454 259.993 246.462 260.364 247.476 260.223C248.726 260.049 249.729 259.139 250.654 258.281C260.457 249.178 271.168 241.053 282.575 234.065C264.754 220.692 244.509 210.56 223.123 204.311C227.95 182.134 228.079 158.947 223.5 136.718C213.433 139.918 203.367 143.119 193.3 146.32C193.117 150.993 194.661 155.534 195.742 160.084C196.823 164.635 197.41 169.604 195.438 173.845C193.466 178.086 188.096 181.017 183.935 178.882C188.887 180.504 194.17 176.116 195.488 171.074C196.805 166.033 195.314 160.732 193.833 155.737C192.791 152.225 191.75 148.713 190.709 145.201C224.195 135.262 255.808 119.049 283.419 97.6536C266.828 113.807 245.896 124.632 225.223 135.064C230.744 155.589 230.62 177.603 224.867 198.064C224.043 200.992 227.534 203.141 230.377 204.221C250.335 211.802 269.282 222.035 286.566 234.567C276.645 239.327 267.557 245.818 259.836 253.659C256.822 256.721 253.901 260.07 249.997 261.863C246.092 263.656 240.817 263.367 238.24 259.929C239.8 262.813 241.36 265.699 242.92 268.583C232.433 274.758 220.589 278.618 208.477 279.808C207.201 279.933 205.807 280.001 204.752 279.271C203.947 278.713 203.491 277.787 203.07 276.902C198.016 266.294 192.962 255.686 187.909 245.078C184.868 238.696 181.795 232.208 180.645 225.233C178.29 210.943 184.248 196.284 182.08 181.964C179.758 166.636 168.65 154.315 162.049 140.287C159.508 134.886 157.595 128.894 158.561 123.003C159.527 117.113 164.096 111.486 170.044 110.986C168.545 103.527 169.138 95.6597 171.737 88.51C171.82 96.1622 171.441 103.82 170.6 111.426C177.146 110.841 183.691 110.256 190.237 109.671C188.378 106.709 186.52 103.746 184.662 100.783C191.725 105.909 202.443 101.498 206.902 93.9963C211.361 86.4944 211.235 77.2129 210.671 68.5041C204.928 72.0218 197.439 72.5081 191.29 69.762C188.435 68.4873 184.958 70.2037 183.212 72.7971C181.467 75.3906 181.026 78.6195 180.632 81.7209C178.318 80.8402 179.012 77.2417 177.529 75.2581C175.345 72.3374 170.148 75.4976 170.279 79.1418C170.41 82.7862 173.519 85.5429 176.47 87.6848C172.188 89.3148 168.878 83.7458 167.758 79.303C166.449 74.1102 165.314 68.6107 166.781 63.4602C168.247 58.3096 173.173 53.7507 178.469 54.5432C182.107 55.0875 185.663 53.4101 189.001 51.8655C193.292 49.8796 197.832 48.0052 202.557 48.1838ZM265.316 251.902C266.582 252.504 267.669 253.479 268.404 254.673C268.688 255.135 268.926 255.652 268.921 256.195C268.911 257.419 267.742 258.268 266.699 258.908L260.184 262.905C257.262 264.697 254.223 266.532 250.822 266.958C250.443 266.542 251 265.939 251.49 265.662C256.423 262.874 261.356 260.085 266.29 257.297C267.174 256.797 266.755 255.431 266.135 254.625C265.516 253.819 264.764 252.755 265.316 251.902ZM213.458 209.16C214.212 209.475 213.963 210.74 213.221 211.083C212.48 211.427 211.613 211.159 210.842 210.889C210.748 211.843 209.711 212.588 208.777 212.372C207.843 212.157 207.238 211.033 207.571 210.134C208.112 209.669 208.923 209.542 209.581 209.821C209.682 210.262 208.908 210.222 208.542 210.489C208 210.884 208.785 211.801 209.414 211.568C210.042 211.334 210.292 210.595 210.463 209.947C211.177 210.393 212.04 210.594 212.877 210.51C213.273 210.397 212.813 209.824 212.403 209.781C211.993 209.737 211.419 209.361 211.731 209.091C212.307 209.114 212.882 209.137 213.458 209.16ZM222.224 203.306C222.571 203.59 222.146 204.116 221.755 204.336C212.735 209.42 202.193 210.902 191.932 212.291C191.197 212.391 190.152 212.245 190.142 211.503C201.241 210.963 212.226 208.156 222.224 203.306ZM363.551 122.196C365.185 122.203 367.072 122.356 368.014 123.69C358.995 149.933 354.267 177.647 354.078 205.397C354.067 206.931 353.812 208.848 352.355 209.33C351.595 207.78 351.68 205.966 351.782 204.242C352.258 196.207 352.734 188.171 353.21 180.136C348.013 184.821 342.816 189.506 337.619 194.192C343.046 198.991 347.513 204.875 350.677 211.393C349.182 211.717 348.091 210.064 347.39 208.703C344.696 203.473 340.802 198.865 336.095 195.334C331.113 200.735 326.131 206.135 321.149 211.535C318.51 205.441 314.432 199.975 309.343 195.707C308.472 194.977 307.526 194.259 306.41 194.045C305.293 193.831 303.97 194.279 303.533 195.328C302.92 196.801 300.698 196.08 299.409 195.141C296.383 192.938 293.357 190.734 290.332 188.531C288.049 186.87 285.57 184.889 285.229 182.086C282.876 162.748 278.404 143.668 271.917 125.299C271.754 124.838 271.634 124.223 272.037 123.946C272.169 123.854 272.334 123.824 272.493 123.797C286.917 121.339 301.676 123.201 316.306 123.453C332.06 123.725 347.795 122.12 363.551 122.196ZM326.69 184.282C325.353 182.95 323.512 181.569 321.754 182.255C316.502 184.307 312.003 188.231 309.255 193.155C313.349 197.599 317.443 202.045 321.537 206.49C321.798 206.773 322.118 207.08 322.501 207.044C322.73 207.023 322.927 206.881 323.107 206.739C327.257 203.457 329.223 197.707 333.927 195.285C334.374 195.055 334.915 194.74 334.886 194.239C334.873 194.012 334.738 193.812 334.606 193.627C332.236 190.297 329.585 187.168 326.69 184.282ZM287.672 184.232C287.811 185.216 288.042 186.34 288.912 186.823C292.926 189.049 296.663 191.774 300.01 194.914C301.042 195.883 302.672 194.842 303.668 193.836C304.109 193.391 304.58 192.878 304.587 192.251C304.593 191.816 304.368 191.414 304.145 191.039C300.599 185.09 295.583 180.025 289.668 176.422C289.465 176.298 289.248 176.172 289.009 176.17C288.643 176.168 288.347 176.452 288.018 176.615C287.69 176.777 287.168 176.725 287.11 176.364C287.609 175.922 288.107 175.48 288.606 175.038C288.916 174.764 289.256 174.402 289.161 173.999C289.113 173.797 288.961 173.638 288.813 173.492C287.915 172.609 286.912 171.833 285.831 171.187C286.445 175.535 287.058 179.883 287.672 184.232ZM340.395 165.456C334.433 168.634 329.091 172.972 324.756 178.155C324.548 178.403 324.33 178.696 324.375 179.017C324.414 179.305 324.653 179.518 324.875 179.705C329.351 183.5 333.271 187.95 336.47 192.869C340.969 186.94 346.513 181.805 352.769 177.774C349.485 175.743 346.378 173.426 343.496 170.858C341.886 169.424 340.223 167.605 340.395 165.456ZM306.395 164.95C305.816 164.658 305.185 164.382 304.541 164.46C303.907 164.537 303.367 164.941 302.862 165.331C298.935 168.362 295.009 171.392 291.083 174.423C296.661 178.65 301.513 183.834 305.364 189.678C305.832 190.388 306.884 190.493 307.663 190.15C308.441 189.807 309.015 189.134 309.581 188.498C312.916 184.752 316.908 181.592 321.32 179.205C317.058 173.728 312.59 168.078 306.395 164.95ZM322.874 151.432C322.285 151.484 321.763 151.815 321.269 152.139C316.438 155.303 311.742 158.673 307.199 162.238C312.738 166.534 317.714 171.557 321.96 177.135C322.36 177.661 323.171 177.132 323.592 176.623C327.301 172.146 331.775 168.303 336.76 165.312C334.496 159.62 330.135 154.79 324.704 151.957C324.133 151.66 323.515 151.375 322.874 151.432ZM357.657 151.824C353.145 153.685 348.997 156.426 345.515 159.846C343.851 161.481 342.27 163.413 341.966 165.726C345.072 170.053 349.148 173.68 353.805 176.265C355.089 168.118 356.373 159.971 357.657 151.824ZM292.45 150.56C292.025 150.359 291.555 150.169 291.096 150.272C290.665 150.368 290.333 150.703 290.028 151.023C287.551 153.622 285.033 156.489 284.423 160.027C283.963 162.7 284.658 165.423 285.347 168.046C285.428 168.353 285.513 168.668 285.704 168.921C285.949 169.247 286.337 169.426 286.699 169.614C288.203 170.399 289.513 171.551 290.483 172.943C294.284 168.328 299.143 164.589 304.579 162.098C301.347 157.468 297.555 152.969 292.45 150.56ZM340.835 138.651C340.453 138.238 339.753 137.823 339.418 138.275C335.739 143.226 330.629 147.103 324.87 149.312C329.919 152.756 334.435 156.98 338.209 161.787C338.786 162.523 339.874 163.319 340.505 162.629C344.887 157.844 349.897 153.635 355.366 150.144C349.971 147.088 345.051 143.196 340.835 138.651ZM309 137.348C304.345 141.66 299.089 145.322 293.431 148.195C298.131 152.062 302.902 156.009 306.271 161.078C310.667 155.865 316.431 151.815 322.826 149.446C317.919 145.771 313.293 141.723 309 137.348ZM277.112 133.818C279.221 141.705 281.33 149.592 283.439 157.479C284.932 153.45 288.134 150.335 291.24 147.366C286.635 143.09 282.173 138.661 277.862 134.089C277.673 133.889 277.385 133.785 277.112 133.818ZM365.671 124.422C364.387 124.259 363.085 124.104 361.802 124.28C359.419 124.605 357.348 126.027 355.378 127.407C351.177 130.353 346.974 133.299 342.772 136.244C342.442 136.476 342.069 136.811 342.165 137.203C342.21 137.387 342.352 137.528 342.489 137.659C347.275 142.257 352.565 146.329 358.234 149.781C360.118 141.168 362.605 132.688 365.671 124.422ZM339.866 124.722C339.109 124.045 338.044 125.041 337.424 125.845C336.715 126.766 335.856 127.561 334.962 128.303C329.002 133.254 321.227 135.97 313.48 135.807C312.096 135.778 310.227 135.04 310.578 133.701C313.869 134.412 317.295 134.112 320.617 133.562C322.357 133.274 324.087 132.918 325.799 132.495C326.875 132.23 327.968 131.928 328.884 131.305C330.333 130.32 331.498 128.503 333.245 128.629C331.693 127.622 330.142 126.615 328.59 125.609C328.184 125.345 327.769 125.078 327.304 124.942C326.802 124.795 326.268 124.81 325.745 124.825C323.161 124.904 320.578 124.982 317.995 125.06C314.99 125.151 311.957 125.24 309.003 124.683C308.874 127.193 308.892 129.71 309.058 132.218C309.111 133.017 309.182 133.832 309.506 134.564C309.907 135.468 310.655 136.165 311.383 136.834C314.599 139.792 317.815 142.75 321.031 145.708C322.324 146.897 324.323 147.032 325.997 146.498C327.67 145.964 329.096 144.866 330.484 143.789C332.337 142.351 334.191 140.913 336.044 139.475C337.882 138.049 339.923 136.141 339.537 133.848C339.028 130.825 339.14 127.7 339.866 124.722ZM288.558 124.75C283.737 124.933 278.924 125.352 274.144 126.006C279.085 133.024 284.947 139.393 291.533 144.897C292.258 145.502 293.254 146.127 294.074 145.657C299.13 142.754 303.801 139.178 307.922 135.054C301.769 133.713 296.069 130.364 291.905 125.639C291.115 124.742 289.752 124.705 288.558 124.75ZM342.065 124.587C340.69 126.739 340.844 129.492 341.046 132.038C341.15 133.335 341.254 134.632 341.357 135.929C346.57 132.274 351.783 128.618 356.997 124.963C352.019 124.838 347.042 124.713 342.065 124.587ZM307.386 125.628C307.285 124.96 306.433 124.635 305.787 124.832C305.14 125.03 304.667 125.571 304.23 126.087C302.994 127.549 301.757 129.012 300.521 130.474C300.418 130.596 300.308 130.739 300.329 130.898C300.396 131.413 301.155 130.948 301.657 130.809C302.735 130.511 303.81 132.471 304.643 131.725C304.62 131.989 304.596 132.254 304.573 132.519C305.55 132.95 306.528 133.382 307.505 133.813C307.834 131.096 307.794 128.334 307.386 125.628ZM299.14 124.264C297.389 124.245 295.565 124.24 293.992 125.009C293.646 126.492 294.692 128.155 296.177 128.487C296.935 128.655 297.969 128.688 298.14 129.445C298.259 129.969 299.054 129.83 299.5 129.53C301.054 128.48 302.278 126.949 302.96 125.201C302.762 124.867 302.221 124.815 301.961 125.106C301.295 124.343 300.153 124.275 299.14 124.264ZM333.967 125.416C332.832 124.73 331.44 124.481 330.137 124.733C331.394 126.1 333.244 126.903 335.101 126.886C335.195 126.235 335.583 125.632 336.136 125.277C335.557 124.698 334.468 124.768 333.967 125.416ZM320.379 99.2756C319.903 99.1418 319.339 99.0311 318.955 99.343C318.738 99.5185 318.632 99.7924 318.534 100.053C317.795 102.018 317.056 103.984 316.317 105.949C318.826 106.809 320.57 109.101 321.77 111.466C322.97 113.831 323.796 116.399 325.287 118.592C329.299 118.744 333.317 118.715 337.327 118.506C338.393 118.451 339.483 118.376 340.462 117.951C341.442 117.527 342.304 116.679 342.453 115.622C342.538 115.016 342.388 114.378 342.584 113.798C342.755 113.29 343.16 112.678 342.779 112.301C336.57 106.164 328.784 101.636 320.379 99.2756ZM314.58 106.786C309.777 107.712 305.315 109.887 300.634 111.305C295.953 112.722 290.702 113.329 286.31 111.177C286.376 113.228 287.196 115.247 288.578 116.764C288.204 116.908 287.995 117.38 288.139 117.753C288.36 118.323 289.113 118.416 289.723 118.418C295.489 118.436 301.254 118.454 307.02 118.472C308.126 118.475 308.863 117.368 309.389 116.395L314.58 106.786ZM316.886 107.6C316.254 107.352 315.399 107.545 315.141 108.173C313.671 111.759 311.834 115.194 309.668 118.408C312.93 118.094 316.216 118.2 319.491 118.305C320.714 118.344 321.938 118.384 323.161 118.423C322.108 115.029 320.481 111.813 318.372 108.952C317.969 108.406 317.518 107.848 316.886 107.6ZM284.881 74.1282C283.942 74.02 283.09 74.6367 282.345 75.22C281.426 75.94 280.507 76.6601 279.588 77.3801C278.647 78.1181 277.677 78.8874 277.117 79.9446C276.556 81.0017 276.516 82.4333 277.348 83.2932C280.198 86.2387 283.092 89.245 284.937 92.9045C286.782 96.5641 287.453 101.045 285.712 104.756C284.811 106.679 285.973 109.088 287.793 110.185C289.612 111.281 291.869 111.342 293.982 111.123C297.844 110.723 301.567 109.501 305.254 108.287C307.8 107.449 310.345 106.612 312.89 105.774C315.537 104.902 317.4 102.086 317.166 99.3088C317.507 98.7349 316.647 98.2115 315.99 98.092C311.039 97.1918 306.046 96.5259 301.032 96.0979C296.355 95.6987 291.182 95.6548 287.55 98.6272C289.12 95.9036 291.783 93.8311 294.809 92.9788C293.931 86.5782 291.169 80.4476 286.957 75.5491C286.397 74.8978 285.735 74.2264 284.881 74.1282ZM186.728 88.9348C187.616 88.567 188.647 89.2212 189.095 90.0715C189.544 90.9219 189.591 91.9177 189.763 92.8635C189.936 93.8093 190.307 94.8125 191.141 95.2913C193.689 96.7542 196.626 97.5319 199.564 97.5207C196.719 98.7716 193.477 97.2985 190.726 95.8528C188.638 94.7554 186.549 93.6582 184.46 92.5608C184.054 92.3471 183.578 91.9077 183.827 91.5217C184.545 91.7022 185.236 91.9934 185.866 92.3831C185.597 91.1191 185.534 89.4294 186.728 88.9348ZM188.199 90.0647C187.888 89.3532 186.678 89.6268 186.4 90.3518C186.122 91.0768 186.468 91.8836 186.863 92.552C186.883 92.0715 187.265 91.63 187.738 91.5413C187.879 92.1661 187.917 92.8143 187.849 93.4514C188.377 93.532 188.877 93.7813 189.259 94.1536C189.124 92.7461 188.765 91.3603 188.199 90.0647ZM201.014 81.3166C201.126 81.1218 201.401 81.0419 201.6 81.1467C201.748 81.4039 201.896 81.661 202.043 81.9182C201.434 82.1367 201.317 82.9545 201.43 83.592C201.597 84.5279 202.03 85.3913 202.374 86.2776C202.717 87.1639 202.978 88.1297 202.781 89.0598C202.584 89.9897 201.806 90.8536 200.856 90.8645C199.905 90.8752 199.061 89.731 199.551 88.9163C199.973 89.3763 200.495 89.8322 201.119 89.8352C201.742 89.838 202.345 89.1071 201.998 88.5891C200.586 86.4856 200.212 83.7194 201.014 81.3166ZM321.162 82.8723C320.921 82.5031 320.358 82.5496 319.96 82.7395C319.563 82.9294 319.184 83.2238 318.744 83.217C316.366 83.1797 313.981 83.7126 311.845 84.7581C313.881 86.6982 316.205 88.3342 318.718 89.5959C319.005 89.7401 319.33 89.8831 319.637 89.7893C320.089 89.6512 320.244 89.1025 320.328 88.6379C320.626 86.9876 320.923 85.3371 321.221 83.6868C321.271 83.4119 321.314 83.1062 321.162 82.8723ZM195.149 82.5784C196.185 82.4189 196.638 84.0113 196.075 84.8957C195.595 85.6497 194.572 86.1238 193.773 85.7229C193.543 84.8585 193.734 83.8917 194.276 83.1799C194.495 82.8917 194.791 82.6336 195.149 82.5784ZM206.733 80.7688C207.235 81.814 207.601 83.3419 206.585 83.9016C206.153 84.1403 205.622 84.0771 205.135 83.9885C204.427 82.7625 205.328 80.9465 206.733 80.7688ZM294.389 74.0696C305.193 68.9469 318.196 68.2749 330.539 69.4993C341.598 70.5963 356.82 80.0907 353.069 80.9348C349.927 81.6416 337.02 80.9344 330.137 79.2747C336.136 77.5108 352.734 80.9968 352.13 79.9397C350.537 77.1512 341.7 72.8873 335.282 71.5754C321.747 68.8089 307.487 69.6789 294.389 74.0696ZM188.435 79.3489C189.909 78.0156 192.19 78.341 194.135 78.7493C194.906 78.9111 195.678 79.0728 196.449 79.2346C196.666 79.7672 196.087 80.3385 195.513 80.3801C194.94 80.4217 194.401 80.1355 193.862 79.9368C191.943 79.2299 189.649 79.6664 188.125 81.0295C187.643 80.6012 187.957 79.7814 188.435 79.3489ZM208.051 75.6545C208.512 75.713 208.967 76.0949 208.932 76.5579C207.65 77.1429 206.368 77.7277 205.085 78.3127C204.776 78.4537 204.414 78.5952 204.111 78.4416C203.724 78.2453 203.699 77.6606 203.95 77.3069C204.201 76.9532 204.626 76.7745 205.029 76.6135C205.588 76.3902 206.147 76.1669 206.706 75.9436C207.137 75.7714 207.591 75.5962 208.051 75.6545Z" fill="#00160A"/>
<path fill-rule="evenodd" clip-rule="evenodd" d="M159.741 370.508C160.162 371.402 160.339 372.41 160.248 373.395C159.28 372.676 158.391 371.85 157.602 370.938C156.834 371.581 155.89 372.01 154.901 372.167C154.8 371.15 155.407 370.103 156.339 369.684C155.147 369.282 153.688 368.44 153.968 367.213C155.117 367.225 156.264 367.431 157.346 367.82C157.336 366.753 157.881 365.695 158.756 365.085C159.008 366.216 159.26 367.347 159.512 368.479C160.174 368.763 160.869 368.969 161.578 369.092C161.195 369.789 160.513 370.315 159.741 370.508L159.741 370.508Z" fill="#FFB61D"/>
<path fill-rule="evenodd" clip-rule="evenodd" d="M191.011 311.112C189.944 310.821 188.98 310.167 188.317 309.283C187.612 309.813 186.736 310.111 185.854 310.12C186.111 309.438 186.507 308.808 187.01 308.281C186.234 307.59 185.52 306.831 184.88 306.014C185.951 305.232 187.76 307.051 188.632 306.052C188.901 305.743 188.912 305.294 189.054 304.91C189.196 304.526 189.648 304.169 189.986 304.4C190.395 305.126 190.564 305.983 190.463 306.81C191.058 306.999 191.653 307.187 192.248 307.376C192.227 308.069 191.435 308.62 190.777 308.399C190.855 309.303 190.933 310.208 191.011 311.112H191.011Z" fill="#FFB61D"/>
<path fill-rule="evenodd" clip-rule="evenodd" d="M297.472 198.026C298.068 197.505 298.991 197.913 299.643 198.361C304.038 201.381 307.402 205.644 310.694 209.838C311.018 210.25 311.36 210.728 311.281 211.246C311.203 211.763 310.419 212.105 310.148 211.656C307.296 206.923 303.483 202.771 299.009 199.527C298.423 199.102 297.804 198.668 297.472 198.026L297.472 198.026Z" fill="#00160A"/>
<path fill-rule="evenodd" clip-rule="evenodd" d="M187.738 91.541C187.879 92.166 187.917 92.8143 187.849 93.4515C188.377 93.5321 188.877 93.7813 189.26 94.1537C189.125 92.7461 188.765 91.3603 188.199 90.0647C187.888 89.3532 186.678 89.6263 186.4 90.3513C186.122 91.0763 186.468 91.883 186.863 92.5515C186.883 92.071 187.265 91.6298 187.738 91.541Z" fill="#FFB61D"/>
<path fill-rule="evenodd" clip-rule="evenodd" d="M307.04 209.983C303.044 207.716 298.872 205.76 294.574 204.14C293.628 203.783 292.452 204.222 291.971 205.11C291.373 204.674 291.726 203.623 292.408 203.336C293.09 203.05 293.869 203.275 294.57 203.512C298.309 204.775 301.953 206.323 305.459 208.136C306.223 208.531 307.092 209.125 307.04 209.983H307.04Z" fill="#00160A"/>
<path fill-rule="evenodd" clip-rule="evenodd" d="M289.427 197.321C290.702 200.862 291.181 204.688 290.818 208.435C290.778 208.846 290.609 209.371 290.196 209.373C289.718 209.376 289.603 208.713 289.635 208.236C289.906 204.308 289.389 200.328 288.125 196.599C288.462 196.077 289.216 196.736 289.427 197.321H289.427Z" fill="#00160A"/>
<path fill-rule="evenodd" clip-rule="evenodd" d="M309.167 205.911C307.11 203.503 305.053 201.096 302.996 198.688C302.75 198.4 302.494 197.982 302.718 197.675C305.426 199.914 307.643 202.745 309.167 205.911Z" fill="#00160A"/>
<path fill-rule="evenodd" clip-rule="evenodd" d="M78.8558 208.514C78.524 208.313 78.3403 207.894 78.4175 207.514C78.6334 207.29 79.041 207.296 79.25 207.526C79.4498 207.897 79.2617 208.422 78.8716 208.582L78.8558 208.514Z" fill="#00160A"/>
<path fill-rule="evenodd" clip-rule="evenodd" d="M298.467 18.7955C298.223 18.8326 297.979 18.8696 297.735 18.9066C297.601 18.6845 297.549 18.4142 297.592 18.1584C297.803 18.021 298.069 17.9694 298.316 18.0178C298.455 18.2266 298.504 18.4928 298.449 18.7373L298.467 18.7955Z" fill="#00160A"/>
<path fill-rule="evenodd" clip-rule="evenodd" d="M219.279 165.943C218.572 169.003 214.867 170.953 211.927 169.848C211.536 169.701 211.36 169.256 211.232 168.858C209.549 163.635 208.437 158.229 207.923 152.765C207.83 151.776 207.759 150.759 208.042 149.806C208.657 147.733 211.115 146.414 213.184 147.048C214.592 147.479 215.679 148.651 216.342 149.967C217.004 151.283 217.3 152.748 217.589 154.193C218.067 156.578 218.544 158.963 219.021 161.348C219.324 162.865 219.627 164.436 219.279 165.943ZM212.657 168.826C213.118 169.226 213.792 169.283 214.394 169.175C216.969 168.712 218.383 165.747 218.298 163.131C218.214 160.516 217.09 158.06 216.518 155.506C216.12 153.728 215.969 151.836 215.019 150.281C214.07 148.725 211.934 147.675 210.392 148.646C208.836 149.626 208.851 151.866 209.099 153.689C209.728 158.32 210.678 162.907 211.938 167.408C212.083 167.926 212.25 168.473 212.657 168.826Z" fill="#FFB61D"/>
<path fill-rule="evenodd" clip-rule="evenodd" d="M216.143 166.21C215.6 166.559 214.836 166.326 214.393 165.856C213.95 165.386 213.751 164.742 213.576 164.12C212.535 160.433 211.813 156.655 211.422 152.844C211.368 152.321 211.324 151.773 211.527 151.288C211.73 150.804 212.264 150.416 212.77 150.56C213.263 150.7 213.504 151.243 213.676 151.726C215.094 155.717 216.103 159.853 216.682 164.05C216.789 164.828 216.805 165.785 216.143 166.21ZM212.263 151.252C212.363 155.838 213.219 160.406 214.787 164.716C214.966 165.209 215.465 165.804 215.885 165.49C215.585 160.573 214.349 155.715 212.263 151.252Z" fill="#FFB61D"/>
<path fill-rule="evenodd" clip-rule="evenodd" d="M319.53 92.2122L317.72 97.0222C317.312 96.9365 316.832 96.8318 316.292 96.7138C311.403 95.6469 301.529 93.4921 294.81 94.4382C288.314 95.3529 285.392 99.7626 284.834 103.276C284.042 108.266 284.746 113.484 286.834 118.085C286.051 118.197 286.924 118.281 288.947 118.343C289.198 118.401 289.473 118.417 289.723 118.418L293.6 118.43C301.474 118.523 314.514 118.5 325.187 118.443C325.22 118.493 325.253 118.543 325.287 118.592C329.299 118.743 333.317 118.715 337.327 118.506C337.926 118.474 338.533 118.437 339.123 118.335C342.235 118.299 343.62 118.265 342.219 118.245C345.698 115.346 342.368 109.744 338.758 107.01C333.038 102.679 326.494 99.438 319.581 97.514L321.193 91.6021C326.086 91.0002 330.853 89.3927 335.111 86.9087C336.362 89.7624 338.754 85.6076 329.084 80.7241C329.653 83.0488 331.308 85.0832 333.468 86.114C330.054 88.4287 325.962 89.7319 321.838 89.8184C320.864 86.2673 322.97 82.1466 326.419 80.8563C320.564 80.8563 307.883 84.3618 301.322 87.8416C297.786 89.7169 297.433 92.8411 297.852 93.341C301.761 85.475 314.825 84.7948 319.53 92.2122ZM339.123 118.335C339.583 118.256 340.034 118.137 340.463 117.951C341.442 117.527 342.305 116.679 342.453 115.622C342.487 115.377 342.483 115.126 342.479 114.876V114.876C342.473 114.509 342.467 114.143 342.584 113.798C342.621 113.688 342.669 113.573 342.718 113.456C342.894 113.035 343.078 112.596 342.779 112.301C336.57 106.163 328.784 101.636 320.379 99.2758C319.903 99.142 319.339 99.031 318.955 99.3429C318.739 99.5184 318.632 99.7917 318.534 100.052L316.317 105.949C318.826 106.809 320.57 109.101 321.77 111.466C322.201 112.314 322.583 113.188 322.965 114.062C323.624 115.57 324.283 117.076 325.187 118.443C330.893 118.413 335.922 118.373 339.123 118.335ZM293.6 118.43L307.02 118.472C308.126 118.475 308.864 117.369 309.39 116.395L314.58 106.787C311.596 107.362 308.744 108.419 305.89 109.477C304.149 110.122 302.408 110.768 300.635 111.305C295.954 112.722 290.703 113.328 286.31 111.177C286.377 113.228 287.196 115.247 288.578 116.764C288.204 116.908 287.995 117.379 288.14 117.753C288.27 118.089 288.585 118.259 288.947 118.343C290.135 118.379 291.72 118.408 293.6 118.43ZM287.793 110.184C285.974 109.088 284.81 106.679 285.712 104.756C289.448 96.79 292.265 95.3499 301.032 96.0982C306.045 96.5262 311.039 97.1918 315.99 98.0921C316.647 98.2116 317.507 98.7348 317.166 99.3087C317.4 102.085 315.537 104.902 312.891 105.774L305.255 108.288C301.567 109.502 297.844 110.723 293.982 111.124C291.869 111.343 289.612 111.281 287.793 110.184ZM309.669 118.409C312.93 118.095 316.216 118.2 319.491 118.305L323.16 118.423C322.107 115.029 320.481 111.812 318.372 108.952C317.969 108.406 317.518 107.848 316.886 107.6C316.254 107.352 315.399 107.545 315.141 108.173C313.671 111.759 311.834 115.195 309.669 118.409ZM319.638 89.7889C319.33 89.8829 319.005 89.7402 318.718 89.5961C316.205 88.3343 313.881 86.6979 311.845 84.7577C313.981 83.7123 316.366 83.1796 318.743 83.2169C319.072 83.2221 319.366 83.0602 319.658 82.8987C319.759 82.8434 319.859 82.7881 319.961 82.7396C320.358 82.5497 320.921 82.5027 321.162 82.8718C321.314 83.1058 321.271 83.4117 321.221 83.6866L320.327 88.6377C320.243 89.1022 320.089 89.6508 319.638 89.7889Z" fill="white"/>
</svg>
