<svg width="246" height="139" viewBox="0 0 246 139" fill="none" xmlns="http://www.w3.org/2000/svg">
<path d="M23.9505 39.664C25.4012 38.0427 27.2145 36.6987 29.3905 35.632C31.6092 34.5227 34.0198 33.968 36.6225 33.968C39.2678 33.968 41.5932 34.544 43.5985 35.696C45.6465 36.8053 47.2252 38.4267 48.3345 40.56C49.4438 42.6933 49.9985 45.1893 49.9985 48.048C49.9985 49.3707 49.8705 50.736 49.6145 52.144C48.9745 55.7707 47.6945 58.992 45.7745 61.808C43.8545 64.5813 41.5292 66.736 38.7985 68.272C36.0678 69.808 33.2092 70.576 30.2225 70.576C27.6198 70.576 25.4012 70.0427 23.5665 68.976C21.7745 67.9093 20.4092 66.5653 19.4705 64.944L15.6305 86.896H6.6065L15.8225 34.544H24.8465L23.9505 39.664ZM40.4625 52.144C40.5905 51.2907 40.6545 50.5227 40.6545 49.84C40.6545 47.3227 39.9292 45.36 38.4785 43.952C37.0278 42.544 35.1718 41.84 32.9105 41.84C31.2892 41.84 29.6892 42.2667 28.1105 43.12C26.5318 43.9307 25.1665 45.1253 24.0145 46.704C22.8625 48.2827 22.0945 50.1387 21.7105 52.272C21.5398 53.3813 21.4545 54.192 21.4545 54.704C21.4545 57.2213 22.1798 59.184 23.6305 60.592C25.1238 62 26.9798 62.704 29.1985 62.704C30.8625 62.704 32.4838 62.2773 34.0625 61.424C35.6412 60.5707 37.0065 59.3547 38.1585 57.776C39.3105 56.1973 40.0785 54.32 40.4625 52.144ZM105.47 34.544L99.1975 70H90.2375L91.0055 65.52C89.6402 67.056 87.9548 68.272 85.9495 69.168C83.9442 70.0213 81.8322 70.448 79.6135 70.448C75.9442 70.448 73.0428 69.4667 70.9095 67.504C68.7762 65.4987 67.7095 62.6613 67.7095 58.992C67.7095 57.6267 67.8162 56.4107 68.0295 55.344L71.6775 34.544H80.6375L77.1815 54.064C77.0535 54.832 76.9895 55.5787 76.9895 56.304C76.9895 58.3947 77.5655 60.016 78.7175 61.168C79.8695 62.2773 81.4908 62.832 83.5815 62.832C86.0135 62.832 88.0828 62.0853 89.7895 60.592C91.4962 59.056 92.5842 56.88 93.0535 54.064L96.5095 34.544H105.47ZM138.246 22.64L129.862 70H120.838L129.222 22.64H138.246ZM165.338 70.576C162.736 70.576 160.368 70.1493 158.234 69.296C156.144 68.4 154.48 67.184 153.242 65.648C152.048 64.0693 151.45 62.2773 151.45 60.272C151.45 59.9733 151.493 59.4827 151.578 58.8H160.282C160.154 60.2933 160.602 61.5093 161.626 62.448C162.65 63.344 164.101 63.792 165.978 63.792C167.685 63.792 169.093 63.4933 170.202 62.896C171.354 62.256 171.93 61.3387 171.93 60.144C171.93 59.0773 171.397 58.224 170.33 57.584C169.306 56.944 167.664 56.2187 165.402 55.408C163.141 54.5973 161.264 53.808 159.77 53.04C158.277 52.272 156.997 51.2053 155.93 49.84C154.864 48.4747 154.33 46.7467 154.33 44.656C154.33 42.5653 154.928 40.7093 156.122 39.088C157.36 37.4667 159.066 36.208 161.242 35.312C163.418 34.416 165.914 33.968 168.73 33.968C171.418 33.968 173.786 34.416 175.834 35.312C177.882 36.208 179.461 37.4667 180.57 39.088C181.722 40.6667 182.298 42.48 182.298 44.528C182.298 45.04 182.277 45.424 182.234 45.68H173.914C174.042 44.1867 173.616 42.992 172.634 42.096C171.653 41.2 170.224 40.752 168.346 40.752C166.81 40.752 165.552 41.0933 164.57 41.776C163.589 42.416 163.098 43.2907 163.098 44.4C163.098 45.5093 163.653 46.4267 164.762 47.152C165.872 47.8347 167.578 48.6027 169.882 49.456C172.186 50.352 174.021 51.184 175.386 51.952C176.794 52.6773 178.01 53.7013 179.034 55.024C180.058 56.304 180.57 57.9253 180.57 59.888C180.57 62.064 179.909 63.9627 178.586 65.584C177.264 67.2053 175.45 68.4427 173.146 69.296C170.842 70.1493 168.24 70.576 165.338 70.576ZM221.014 33.968C225.536 33.968 229.12 35.2267 231.766 37.744C234.411 40.2187 235.734 43.568 235.734 47.792C235.734 49.1573 235.627 50.3733 235.414 51.44C235.158 52.72 234.88 53.8293 234.582 54.768H208.662C208.619 55.0667 208.598 55.4933 208.598 56.048C208.598 58.2667 209.238 60.016 210.518 61.296C211.84 62.5333 213.568 63.152 215.702 63.152C217.494 63.152 219.03 62.768 220.31 62C221.632 61.1893 222.699 60.144 223.51 58.864H233.174C231.595 62.2773 229.142 65.0933 225.814 67.312C222.528 69.488 218.795 70.576 214.614 70.576C210.091 70.576 206.464 69.296 203.734 66.736C201.003 64.176 199.638 60.6987 199.638 56.304C199.638 55.024 199.766 53.68 200.022 52.272C200.662 48.6027 201.963 45.3813 203.926 42.608C205.931 39.8347 208.406 37.7013 211.35 36.208C214.294 34.7147 217.515 33.968 221.014 33.968ZM226.518 49.328C226.603 48.6453 226.646 48.1547 226.646 47.856C226.646 45.808 225.984 44.208 224.662 43.056C223.339 41.904 221.611 41.328 219.478 41.328C217.216 41.328 215.19 42.0533 213.398 43.504C211.606 44.912 210.347 46.8533 209.622 49.328H226.518Z" fill="white"/>
<path d="M14.5549 122.213C13.4611 122.213 12.5568 121.986 11.8418 121.531C11.1268 121.072 10.6249 120.423 10.3361 119.585C10.052 118.742 10.0047 117.75 10.1941 116.609C10.3787 115.487 10.7551 114.502 11.3233 113.655C11.8915 112.803 12.6017 112.14 13.454 111.666C14.311 111.188 15.258 110.949 16.2949 110.949C16.9673 110.949 17.5852 111.058 18.1486 111.276C18.7121 111.489 19.1879 111.82 19.5762 112.27C19.9644 112.72 20.2319 113.293 20.3787 113.989C20.5255 114.68 20.5184 115.504 20.3574 116.46L20.2367 117.249H11.2878L11.5648 115.516H18.0421C18.1273 115.023 18.0989 114.585 17.9569 114.202C17.8148 113.813 17.5781 113.508 17.2466 113.286C16.9152 113.063 16.5009 112.952 16.0037 112.952C15.4971 112.952 15.0236 113.082 14.5833 113.342C14.1477 113.598 13.7807 113.929 13.4824 114.337C13.1841 114.744 12.9947 115.172 12.9142 115.622L12.623 117.284C12.5189 117.966 12.5426 118.522 12.6941 118.953C12.8456 119.384 13.1107 119.701 13.4895 119.905C13.8683 120.108 14.3465 120.21 14.9242 120.21C15.303 120.21 15.6533 120.158 15.9753 120.054C16.2973 119.95 16.5837 119.794 16.8347 119.585C17.0904 119.372 17.3034 119.112 17.4739 118.804L19.8248 119.074C19.5643 119.708 19.1832 120.262 18.6813 120.736C18.1794 121.205 17.5781 121.569 16.8773 121.83C16.1813 122.085 15.4071 122.213 14.5549 122.213ZM30.6145 107.455L28.1998 122H25.6287L28.0435 107.455H30.6145ZM39.6447 122.213C38.551 122.213 37.6466 121.986 36.9316 121.531C36.2167 121.072 35.7148 120.423 35.426 119.585C35.1419 118.742 35.0945 117.75 35.2839 116.609C35.4686 115.487 35.845 114.502 36.4132 113.655C36.9814 112.803 37.6916 112.14 38.5439 111.666C39.4009 111.188 40.3478 110.949 41.3848 110.949C42.0571 110.949 42.675 111.058 43.2385 111.276C43.8019 111.489 44.2778 111.82 44.666 112.27C45.0543 112.72 45.3218 113.293 45.4686 113.989C45.6154 114.68 45.6083 115.504 45.4473 116.46L45.3265 117.249H36.3777L36.6547 115.516H43.1319C43.2172 115.023 43.1887 114.585 43.0467 114.202C42.9047 113.813 42.6679 113.508 42.3365 113.286C42.005 113.063 41.5907 112.952 41.0936 112.952C40.5869 112.952 40.1135 113.082 39.6731 113.342C39.2375 113.598 38.8706 113.929 38.5723 114.337C38.274 114.744 38.0846 115.172 38.0041 115.622L37.7129 117.284C37.6087 117.966 37.6324 118.522 37.7839 118.953C37.9354 119.384 38.2006 119.701 38.5794 119.905C38.9582 120.108 39.4364 120.21 40.014 120.21C40.3928 120.21 40.7432 120.158 41.0652 120.054C41.3871 119.95 41.6736 119.794 41.9245 119.585C42.1802 119.372 42.3933 119.112 42.5637 118.804L44.9146 119.074C44.6542 119.708 44.273 120.262 43.7711 120.736C43.2692 121.205 42.6679 121.569 41.9672 121.83C41.2711 122.085 40.497 122.213 39.6447 122.213ZM61.9686 111.091L56.2654 122H53.4245L51.3578 111.091H53.9998L55.1646 119.195H55.2782L59.1348 111.091H61.9686ZM68.7278 122.22C68.0365 122.22 67.4352 122.097 66.9238 121.851C66.4125 121.6 66.036 121.231 65.7946 120.743C65.5578 120.255 65.4986 119.654 65.617 118.939C65.7212 118.323 65.92 117.814 66.2136 117.412C66.5119 117.009 66.8765 116.688 67.3074 116.446C67.743 116.2 68.2164 116.015 68.7278 115.892C69.2439 115.769 69.7695 115.679 70.3045 115.622C70.9579 115.556 71.4859 115.494 71.8883 115.438C72.2955 115.381 72.6009 115.295 72.8045 115.182C73.0081 115.063 73.1312 114.884 73.1738 114.642V114.599C73.2591 114.064 73.1738 113.65 72.9181 113.357C72.6625 113.063 72.2363 112.916 71.6397 112.916C71.0147 112.916 70.4892 113.054 70.063 113.328C69.6369 113.603 69.3268 113.927 69.1326 114.301L66.8031 113.96C67.0967 113.297 67.4991 112.743 68.0105 112.298C68.5218 111.848 69.1113 111.512 69.7789 111.29C70.4513 111.062 71.1686 110.949 71.9309 110.949C72.4518 110.949 72.9608 111.01 73.4579 111.134C73.9598 111.257 74.4025 111.46 74.786 111.744C75.1743 112.024 75.4584 112.405 75.6383 112.888C75.823 113.371 75.8538 113.974 75.7306 114.699L74.5162 122H72.0446L72.3002 120.501H72.215C72.0114 120.804 71.7463 121.089 71.4196 121.354C71.0929 121.614 70.7046 121.825 70.2548 121.986C69.805 122.142 69.296 122.22 68.7278 122.22ZM69.7008 120.331C70.2169 120.331 70.6809 120.229 71.0929 120.026C71.5048 119.817 71.8433 119.543 72.1085 119.202C72.3736 118.861 72.5394 118.489 72.6056 118.087L72.8187 116.801C72.724 116.867 72.5772 116.929 72.3784 116.986C72.1795 117.043 71.957 117.092 71.7108 117.135C71.4693 117.178 71.2302 117.215 70.9934 117.249C70.7567 117.282 70.5531 117.31 70.3826 117.334C69.9896 117.386 69.6298 117.471 69.3031 117.589C68.9811 117.708 68.7136 117.874 68.5005 118.087C68.2922 118.295 68.162 118.565 68.1099 118.896C68.0342 119.365 68.1454 119.723 68.4437 119.969C68.742 120.21 69.161 120.331 69.7008 120.331ZM88.367 111.091L88.0332 113.08H81.769L82.0957 111.091H88.367ZM84.0701 108.477H86.6412L84.9366 118.719C84.8845 119.064 84.894 119.33 84.965 119.514C85.0408 119.694 85.1615 119.817 85.3272 119.884C85.4977 119.95 85.6895 119.983 85.9025 119.983C86.0588 119.983 86.2056 119.971 86.3429 119.947C86.4802 119.919 86.5891 119.898 86.6696 119.884L86.7832 121.893C86.627 121.941 86.4163 121.993 86.1511 122.05C85.8907 122.107 85.5782 122.14 85.2136 122.149C84.5602 122.163 83.992 122.064 83.5091 121.851C83.0308 121.633 82.6805 121.299 82.4579 120.849C82.2401 120.395 82.1904 119.827 82.3088 119.145L84.0701 108.477ZM97.383 122.213C96.2892 122.213 95.3849 121.986 94.6699 121.531C93.955 121.072 93.4531 120.423 93.1642 119.585C92.8801 118.742 92.8328 117.75 93.0222 116.609C93.2069 115.487 93.5833 114.502 94.1515 113.655C94.7196 112.803 95.4299 112.14 96.2821 111.666C97.1391 111.188 98.0861 110.949 99.123 110.949C99.7954 110.949 100.413 111.058 100.977 111.276C101.54 111.489 102.016 111.82 102.404 112.27C102.793 112.72 103.06 113.293 103.207 113.989C103.354 114.68 103.347 115.504 103.186 116.46L103.065 117.249H94.1159L94.3929 115.516H100.87C100.955 115.023 100.927 114.585 100.785 114.202C100.643 113.813 100.406 113.508 100.075 113.286C99.7433 113.063 99.329 112.952 98.8319 112.952C98.3252 112.952 97.8517 113.082 97.4114 113.342C96.9758 113.598 96.6088 113.929 96.3105 114.337C96.0123 114.744 95.8229 115.172 95.7424 115.622L95.4512 117.284C95.347 117.966 95.3707 118.522 95.5222 118.953C95.6737 119.384 95.9389 119.701 96.3176 119.905C96.6964 120.108 97.1747 120.21 97.7523 120.21C98.1311 120.21 98.4815 120.158 98.8034 120.054C99.1254 119.95 99.4119 119.794 99.6628 119.585C99.9185 119.372 100.132 119.112 100.302 118.804L102.653 119.074C102.392 119.708 102.011 120.262 101.509 120.736C101.008 121.205 100.406 121.569 99.7054 121.83C99.0094 122.085 98.2353 122.213 97.383 122.213ZM118.348 126.091C117.998 126.091 117.678 126.063 117.389 126.006C117.105 125.954 116.88 125.892 116.715 125.821L117.652 123.818C118.007 123.927 118.327 123.974 118.611 123.96C118.9 123.951 119.165 123.854 119.406 123.669C119.653 123.489 119.894 123.193 120.131 122.781L120.458 122.192L118.369 111.091H120.997L122.134 119.344H122.247L126.146 111.091H128.98L122.595 123.307C122.288 123.899 121.93 124.401 121.523 124.812C121.116 125.229 120.649 125.546 120.124 125.764C119.603 125.982 119.011 126.091 118.348 126.091ZM137.357 122.213C136.282 122.213 135.387 121.976 134.672 121.503C133.962 121.029 133.463 120.364 133.174 119.507C132.885 118.65 132.833 117.656 133.018 116.524C133.202 115.407 133.572 114.429 134.126 113.591C134.684 112.753 135.387 112.104 136.235 111.645C137.087 111.181 138.041 110.949 139.097 110.949C140.172 110.949 141.064 111.188 141.775 111.666C142.485 112.14 142.984 112.805 143.273 113.662C143.567 114.519 143.621 115.518 143.437 116.659C143.257 117.772 142.885 118.745 142.322 119.578C141.763 120.411 141.06 121.06 140.212 121.524C139.365 121.983 138.413 122.213 137.357 122.213ZM137.57 120.153C138.167 120.153 138.69 119.992 139.14 119.67C139.594 119.344 139.966 118.906 140.255 118.357C140.548 117.803 140.752 117.187 140.866 116.51C140.97 115.857 140.972 115.265 140.873 114.734C140.773 114.199 140.56 113.776 140.233 113.463C139.912 113.146 139.464 112.987 138.891 112.987C138.295 112.987 137.767 113.153 137.307 113.484C136.853 113.811 136.481 114.251 136.192 114.805C135.903 115.355 135.705 115.968 135.596 116.645C135.487 117.298 135.482 117.89 135.581 118.42C135.681 118.951 135.894 119.372 136.221 119.685C136.547 119.997 136.997 120.153 137.57 120.153ZM156.451 117.412L157.509 111.091H160.08L158.262 122H155.769L156.096 120.061H155.982C155.642 120.672 155.154 121.171 154.519 121.56C153.89 121.948 153.165 122.142 152.346 122.142C151.631 122.142 151.027 121.983 150.535 121.666C150.043 121.344 149.692 120.878 149.484 120.267C149.28 119.652 149.249 118.908 149.392 118.037L150.556 111.091H153.127L152.034 117.639C151.925 118.33 152.024 118.88 152.332 119.287C152.644 119.694 153.108 119.898 153.724 119.898C154.103 119.898 154.484 119.805 154.867 119.621C155.256 119.436 155.594 119.161 155.883 118.797C156.172 118.428 156.361 117.966 156.451 117.412ZM164.906 122L166.724 111.091H169.217L168.912 112.909H169.025C169.324 112.279 169.745 111.794 170.29 111.453C170.839 111.107 171.426 110.935 172.051 110.935C172.198 110.935 172.356 110.942 172.527 110.956C172.697 110.965 172.844 110.982 172.967 111.006L172.569 113.371C172.461 113.333 172.29 113.3 172.058 113.271C171.831 113.238 171.606 113.222 171.383 113.222C170.915 113.222 170.479 113.323 170.077 113.527C169.679 113.726 169.343 114.003 169.068 114.358C168.793 114.713 168.616 115.123 168.535 115.587L167.477 122H164.906ZM190.802 107.455L188.387 122H185.816L188.231 107.455H190.802ZM195.031 122L196.849 111.091H199.42L197.602 122H195.031ZM198.511 109.528C198.099 109.528 197.758 109.391 197.488 109.116C197.219 108.842 197.1 108.513 197.133 108.129C197.166 107.746 197.339 107.417 197.652 107.142C197.969 106.867 198.331 106.73 198.738 106.73C199.15 106.73 199.489 106.867 199.754 107.142C200.024 107.417 200.142 107.746 200.109 108.129C200.081 108.513 199.908 108.842 199.591 109.116C199.278 109.391 198.918 109.528 198.511 109.528ZM211.597 111.091L211.263 113.08H204.814L205.148 111.091H211.597ZM204.935 122L206.931 110.061C207.044 109.327 207.293 108.716 207.676 108.229C208.065 107.741 208.536 107.376 209.09 107.135C209.648 106.893 210.243 106.773 210.872 106.773C211.322 106.773 211.713 106.808 212.044 106.879C212.376 106.95 212.617 107.014 212.769 107.071L211.938 109.06C211.829 109.027 211.696 108.993 211.54 108.96C211.388 108.922 211.211 108.903 211.007 108.903C210.529 108.903 210.172 109.019 209.935 109.251C209.698 109.479 209.542 109.805 209.466 110.232L207.513 122H204.935ZM220.195 122.213C219.102 122.213 218.197 121.986 217.482 121.531C216.767 121.072 216.266 120.423 215.977 119.585C215.693 118.742 215.645 117.75 215.835 116.609C216.019 115.487 216.396 114.502 216.964 113.655C217.532 112.803 218.242 112.14 219.095 111.666C219.952 111.188 220.899 110.949 221.936 110.949C222.608 110.949 223.226 111.058 223.789 111.276C224.353 111.489 224.829 111.82 225.217 112.27C225.605 112.72 225.873 113.293 226.019 113.989C226.166 114.68 226.159 115.504 225.998 116.46L225.877 117.249H216.928L217.205 115.516H223.683C223.768 115.023 223.74 114.585 223.597 114.202C223.455 113.813 223.219 113.508 222.887 113.286C222.556 113.063 222.142 112.952 221.644 112.952C221.138 112.952 220.664 113.082 220.224 113.342C219.788 113.598 219.421 113.929 219.123 114.337C218.825 114.744 218.635 115.172 218.555 115.622L218.264 117.284C218.16 117.966 218.183 118.522 218.335 118.953C218.486 119.384 218.751 119.701 219.13 119.905C219.509 120.108 219.987 120.21 220.565 120.21C220.944 120.21 221.294 120.158 221.616 120.054C221.938 119.95 222.224 119.794 222.475 119.585C222.731 119.372 222.944 119.112 223.115 118.804L225.465 119.074C225.205 119.708 224.824 120.262 224.322 120.736C223.82 121.205 223.219 121.569 222.518 121.83C221.822 122.085 221.048 122.213 220.195 122.213ZM233.002 122.156C232.567 122.156 232.207 122.005 231.923 121.702C231.639 121.399 231.506 121.029 231.525 120.594C231.544 120.168 231.717 119.805 232.044 119.507C232.37 119.209 232.747 119.06 233.173 119.06C233.594 119.06 233.952 119.211 234.245 119.514C234.544 119.817 234.678 120.177 234.65 120.594C234.631 120.887 234.541 121.152 234.38 121.389C234.224 121.626 234.025 121.813 233.784 121.95C233.542 122.088 233.282 122.156 233.002 122.156Z" fill="white" fill-opacity="0.5"/>
</svg>
