<svg width="440" height="450" viewBox="0 0 440 450" fill="none" xmlns="http://www.w3.org/2000/svg">
<path fill-rule="evenodd" clip-rule="evenodd" d="M193.179 80.7953C183.657 88.0553 175.683 97.0733 169.665 107.339C159.805 105.371 149.181 104.952 138.423 106.493C141.123 94.7633 146.655 83.7233 154.647 74.5013C156.507 72.3653 159.261 71.2193 162.087 71.4233C173.085 72.2033 183.705 75.4613 193.179 80.7953ZM219.999 136.073C229.525 125.547 240.671 117.846 252.525 112.817C245.469 102.239 235.713 93.5453 224.025 87.7013C221.493 86.4353 218.505 86.4353 215.973 87.7013C204.285 93.5453 194.529 102.239 187.473 112.817C199.328 117.846 210.473 125.547 219.999 136.073ZM277.389 224.999C285.609 220.901 293.151 215.489 299.727 208.913C319.569 189.065 326.517 159.707 317.631 133.055C316.737 130.373 314.625 128.261 311.943 127.367C285.315 118.493 255.951 125.411 236.085 145.271C229.509 151.847 224.091 159.389 219.999 167.615C215.907 159.389 210.489 151.847 203.913 145.271C184.065 125.429 154.707 118.481 128.055 127.367C125.367 128.261 123.261 130.373 122.367 133.055C113.493 159.683 120.411 189.047 140.271 208.913C146.841 215.483 154.389 220.901 162.609 224.999C154.389 229.097 146.847 234.509 140.271 241.085C120.429 260.933 113.481 290.291 122.367 316.943C123.261 319.625 125.373 321.737 128.055 322.631C154.683 331.505 184.047 324.587 203.913 304.727C210.489 298.151 215.907 290.609 219.999 282.383C224.091 290.609 229.509 298.151 236.085 304.727C256.041 324.683 285.435 331.469 311.943 322.631C314.631 321.737 316.737 319.625 317.631 316.943C326.505 290.315 319.587 260.951 299.727 241.085C293.157 234.515 285.609 229.097 277.389 224.999ZM354.051 229.025C348.663 239.801 340.857 248.927 331.383 255.821C326.292 244.468 318.843 233.975 308.925 224.999C318.439 216.389 326.073 206.023 331.377 194.171C340.851 201.065 348.663 210.197 354.051 220.973C355.317 223.505 355.317 226.493 354.051 229.025ZM108.621 255.827C113.926 243.975 121.559 233.609 131.073 224.999C121.157 216.024 113.706 205.529 108.615 194.177C99.1413 201.071 91.3353 210.197 85.9473 220.973C84.6813 223.505 84.6813 226.493 85.9473 229.025C91.3353 239.801 99.1473 248.933 108.621 255.827ZM252.645 337.229C245.631 347.441 236.079 355.841 224.685 361.541C222.215 362.771 219.248 362.84 216.639 361.541C205.083 355.763 195.417 347.201 188.379 336.785C200.305 331.578 211.016 323.852 219.999 313.925C229.54 324.468 240.722 332.184 252.645 337.229ZM370.497 293.873C361.119 302.003 349.857 307.583 337.905 310.229C340.143 298.133 339.939 285.689 337.263 273.593C346.635 267.629 354.879 259.985 361.569 251.003C368.463 261.515 372.669 273.725 373.575 286.433C373.779 289.259 372.633 292.013 370.497 293.873ZM285.351 375.497C293.349 366.275 298.875 355.229 301.575 343.499C291.318 344.983 280.682 344.696 270.525 342.689C264.381 352.937 256.275 361.907 246.621 369.095C256.143 374.495 266.841 377.789 277.911 378.575C278.127 378.593 278.337 378.599 278.553 378.599C281.151 378.599 283.635 377.477 285.351 375.497ZM162.087 378.575C173.457 377.765 184.425 374.315 194.133 368.663C184.653 361.499 176.697 352.601 170.655 342.461C160.197 344.655 149.169 345.059 138.423 343.505C141.123 355.235 146.655 366.275 154.647 375.497C156.363 377.477 158.847 378.599 161.445 378.599C161.661 378.599 161.871 378.593 162.087 378.575ZM301.575 106.493C290.818 104.952 280.194 105.371 270.333 107.339C264.315 97.0733 256.341 88.0553 246.819 80.7953C256.293 75.4613 266.913 72.2033 277.911 71.4233C280.737 71.2193 283.491 72.3653 285.351 74.5013C293.343 83.7233 298.875 94.7633 301.575 106.493ZM69.5013 294.995C78.9393 303.179 90.2793 308.777 102.321 311.399C99.8433 298.937 99.9753 286.073 102.741 273.593C93.5493 267.749 85.4433 260.291 78.8253 251.531C71.6973 262.175 67.3413 274.607 66.4233 287.555C66.2193 290.381 67.3653 293.135 69.5013 294.995ZM373.575 163.565C372.669 176.273 368.463 188.483 361.569 198.995C354.879 190.007 346.635 182.369 337.257 176.405C339.933 164.315 340.143 151.865 337.905 139.769C349.857 142.415 361.119 147.995 370.497 156.125C372.633 157.985 373.779 160.739 373.575 163.565ZM78.4293 198.995C85.1193 190.013 93.3633 182.369 102.735 176.405C100.059 164.309 99.8613 151.859 102.093 139.769C90.1413 142.415 78.8793 147.995 69.5013 156.125C67.3653 157.985 66.2193 160.739 66.4233 163.565C67.3293 176.273 71.5353 188.483 78.4293 198.995ZM192.999 224.999C192.999 210.113 205.113 197.999 219.999 197.999C234.885 197.999 246.999 210.113 246.999 224.999C246.999 239.885 234.885 251.999 219.999 251.999C205.113 251.999 192.999 239.885 192.999 224.999ZM210.999 224.999C210.999 229.967 215.031 233.999 219.999 233.999C224.967 233.999 228.999 229.967 228.999 224.999C228.999 220.031 224.967 215.999 219.999 215.999C215.031 215.999 210.999 220.031 210.999 224.999Z" fill="#659E62"/>
<path d="M149.982 361.006C139.297 361.091 130.897 361.566 123.785 362.569C106.687 364.979 96.5211 370.64 92.0179 381.317C89.7192 386.768 90.8261 391.479 95.0474 395.148C98.6715 398.298 104.568 400.68 112.593 402.424L113.041 402.52C126.771 405.434 146.264 406.489 170.985 406.118L172.505 406.094C184.117 405.894 196.025 405.417 210.357 404.646L224.627 403.837C229.64 403.548 234.805 403.251 236.644 403.153L239.131 403.025C244.413 402.762 247.818 402.664 249.919 402.73L252.275 402.819C286.342 404.066 312.927 402.363 330.03 398.347C337.832 396.515 343.414 394.244 346.536 391.659C349.916 388.86 350.5 385.49 347.993 382.515C340.174 373.232 327.342 367.987 306.609 365.191L305.537 365.05C288.311 362.815 266.886 362.128 226.17 362.101L220.311 362.095C212.389 362.072 204.804 361.964 194.735 361.749L169.968 361.185C162.555 361.03 158.386 360.982 153.74 360.989L149.982 361.006Z" fill="white"/>
<ellipse cx="220.189" cy="391.344" rx="127.846" ry="13.3447" fill="#E7EAEE"/>
<path fill-rule="evenodd" clip-rule="evenodd" d="M246.411 296.594C248.732 297.003 250.322 294.736 253.915 287.176L254.18 286.627L254.442 286.104C258.725 277.682 263.678 274.997 269.302 278.05L271.558 271.39L270.8 271.041L270.071 270.712C258.397 265.496 252.092 265.179 251.155 269.761L251.063 270.262L250.985 270.666C250.299 274.159 248.624 280.886 247.412 286.614L247.208 287.591C246.196 292.499 245.604 296.452 246.411 296.594Z" fill="white"/>
<path fill-rule="evenodd" clip-rule="evenodd" d="M221.55 229.046C221.55 229.046 238.617 231.308 247.249 230.916C255.881 230.524 268.505 226.914 268.505 226.914L268.205 237.815C268.205 237.815 308.474 237.001 302.393 269.99C298.388 291.717 267.741 282.782 267.741 282.782L273.602 269.99C273.602 269.99 291.985 271.319 285.291 265.726C284.049 264.689 276.111 263.257 265.664 263.537C256.691 263.777 248.897 261.089 248.086 258.675C245.045 249.627 249.461 244.867 249.461 244.867C249.461 244.867 245.19 246.945 246 251.999C246.81 257.053 240.842 360.53 240.842 360.53C240.842 360.53 235.442 361.488 232.727 361.488C230.012 361.488 226.274 360.53 226.274 360.53L221.55 229.046Z" fill="white"/>
<path fill-rule="evenodd" clip-rule="evenodd" d="M221.55 229.046C221.55 229.046 230.552 361.384 229.299 361.176C228.354 361.02 226.274 360.53 226.274 360.53L221.55 229.046Z" fill="#E7EAEE"/>
<path fill-rule="evenodd" clip-rule="evenodd" d="M228.963 362.569C229.555 367.776 228.448 369.863 228.595 369.863C231.007 369.863 232.448 369.815 236.318 369.514C236.318 369.514 236.101 367.271 236.101 366.216C236.101 364.956 236.318 362.569 236.318 362.569H228.963Z" fill="white"/>
<path d="M223 108.627C223 108.627 214 112.007 214 105.645C214 99.2837 220.943 102.455 220.943 102.455" fill="white"/>
<path d="M262.6 109.291C264.489 109.712 270.4 113.398 270.4 104.473C270.4 100.214 263.65 103.29 263.65 103.29" fill="white"/>
<path d="M241.122 72.0697C233.686 72.791 218.104 79.8613 220.941 100.062C223.14 115.721 234.853 132.6 242.05 132.6C249.116 132.6 261.013 118.391 262.741 104.401C266.268 75.8308 248.557 71.3483 241.122 72.0697Z" fill="white"/>
<path fill-rule="evenodd" clip-rule="evenodd" d="M241.397 86.5251C241.793 85.6079 243.07 85.5467 243.551 86.422C246.004 90.886 248.753 93.9967 251.777 95.7774C254.831 97.5756 258.434 97.753 262.109 96.105C262.714 95.8339 263.424 96.1043 263.695 96.709C263.966 97.3138 263.696 98.0238 263.091 98.295C258.711 100.259 254.288 100.041 250.559 97.8455C247.653 96.1343 245.036 93.4151 242.697 89.7019L242.61 89.5638L242.534 89.7139C240.644 93.3013 238.206 96.1663 235.221 98.2948L234.921 98.5051C231.163 101.091 226.752 102.241 221.732 101.958C221.071 101.921 220.565 101.354 220.602 100.692C220.639 100.031 221.206 99.5244 221.868 99.5618C226.371 99.8159 230.254 98.8036 233.56 96.5281C236.898 94.2308 239.51 90.9054 241.397 86.5251Z" fill="#E7EAEE"/>
<path fill-rule="evenodd" clip-rule="evenodd" d="M279.777 201.465C279.053 215.083 273.965 220.861 267.606 221.691C266.762 221.801 267.944 226.655 267.209 227.291C263.018 230.916 255.63 231.072 244.045 231.178C233.558 231.273 226.795 230.426 222.095 228.5C221.735 228.352 222.059 222.244 221.687 222.211C215.799 221.691 209.017 216.465 207.369 202.254C201.789 154.139 218.572 144.84 234.545 137.174C235.412 136.758 235.883 136.033 236.743 135.622C238.56 134.753 238.086 136.753 242.214 136.753C246.341 136.753 246.341 135.185 248.2 136.073C248.893 136.405 249.008 138.474 249.698 138.839C266.045 147.464 281.777 163.827 279.777 201.465Z" fill="white"/>
<path fill-rule="evenodd" clip-rule="evenodd" d="M249.698 138.839C271.284 146.65 281.31 167.526 279.777 201.465C277.938 242.156 231.722 205.729 247.13 170.674C250.8 162.322 255.623 197.683 255.676 197.832C256.905 201.309 260.658 204.006 264.454 205.448C264.454 205.448 266.153 180.938 263.2 169.382C260.422 158.513 249.698 138.839 249.698 138.839Z" fill="white"/>
<path fill-rule="evenodd" clip-rule="evenodd" d="M235.799 130.8C235.799 130.8 236.405 132.618 236.194 133.742C235.984 134.866 234.696 136.684 234.696 136.684C234.696 136.684 198.862 147.615 207.16 202.166C216.391 241.727 248.753 215.999 243.138 184.454C242.905 161.031 237.602 168.961 233.619 194.773C232.644 201.087 220.668 202.88 220.668 202.88" fill="white"/>
<ellipse cx="252.7" cy="115.5" rx="3.3" ry="2.7" fill="#FFB61D"/>
<ellipse cx="232.9" cy="115.5" rx="3.3" ry="2.7" fill="#FFB61D"/>
<path d="M236.228 119.141C236.371 118.494 239.325 119.002 240.156 120.107L240.413 120.45C241.187 121.476 241.659 121.8 242.658 121.8C243.934 121.8 244.369 121.571 245.094 120.621L245.288 120.36C246.131 119.206 249.103 118.369 249.328 118.992C249.554 119.615 249.232 120.303 248.608 120.528C248.141 120.697 247.875 120.919 247.42 121.516L247.206 121.804C245.96 123.509 244.925 124.2 242.658 124.2C240.818 124.2 239.752 123.511 238.615 122.049L238.238 121.55L238.068 121.329C237.693 120.854 237.464 120.662 237.199 120.586L237.141 120.572C236.494 120.429 236.085 119.788 236.228 119.141Z" fill="#00160A"/>
<path d="M238.56 101.299C237.13 100.862 235.827 100.737 235.073 100.828C234.261 100.927 233.236 101.345 232.29 101.731C231.532 102.04 230.826 102.328 230.321 102.415C229.819 102.501 229.066 102.473 228.333 102.445C227.406 102.411 226.51 102.378 226.19 102.577C225.617 102.935 226.473 103.512 226.973 103.579C228.702 103.807 229.961 103.862 230.795 103.728C231.535 103.61 232.203 103.405 233.111 103.057L234.058 102.696C234.688 102.462 234.85 102.424 235.073 102.419L235.229 102.42C235.863 102.435 236.799 102.626 238.012 102.997C238.493 103.144 239.006 102.883 239.158 102.415C239.309 101.946 239.041 101.447 238.56 101.299Z" fill="#00160A"/>
<path d="M242.097 114.177C242.774 112.199 243.167 102.458 242.421 102.45C241.675 102.442 241.065 103.04 241.057 103.786C241.046 104.834 241.053 105.84 241.059 106.782C241.078 109.612 241.092 111.876 240.619 113.033L240.518 113.272C239.907 114.788 239.736 116.079 241.369 116.381C242.344 116.561 246.723 114.077 246.471 113.376C246.219 112.674 245.446 112.31 244.744 112.562L244.56 112.627C244.143 112.773 243.599 113.229 243.108 113.64C242.673 114.004 242.28 114.333 242.058 114.377L242.023 114.383L242.097 114.177Z" fill="#00160A"/>
<path d="M247.64 101.299C249.07 100.862 250.373 100.737 251.127 100.828C251.938 100.927 252.964 101.345 253.91 101.731C254.667 102.04 255.374 102.328 255.879 102.415C256.381 102.501 257.133 102.473 257.866 102.445C258.794 102.411 259.69 102.378 260.009 102.577C260.582 102.935 259.727 103.512 259.227 103.579C257.498 103.807 256.239 103.862 255.405 103.728C254.665 103.61 253.996 103.405 253.089 103.057L252.142 102.696C251.512 102.462 251.349 102.424 251.127 102.419L250.971 102.42C250.336 102.435 249.401 102.626 248.188 102.997C247.707 103.144 247.193 102.883 247.042 102.415C246.891 101.946 247.158 101.447 247.64 101.299Z" fill="#00160A"/>
<path d="M255.365 108.083C255.742 107.439 255.526 106.612 254.883 106.235C254.656 106.102 254.476 106.355 254.203 106.737C253.702 107.44 252.889 108.58 250.9 108.58C248.895 108.58 248.073 107.429 247.573 106.728C247.306 106.355 247.131 106.11 246.917 106.235C246.274 106.612 246.058 107.439 246.435 108.083C247.387 109.706 248.935 110.55 250.9 110.55C252.865 110.55 254.413 109.706 255.365 108.083Z" fill="#00160A"/>
<path d="M238.131 106.265C238.758 106.669 238.938 107.504 238.535 108.131C237.501 109.736 235.85 110.55 233.749 110.55C231.633 110.55 229.998 109.721 229.036 108.084C228.658 107.442 228.513 106.575 229.515 106.236C229.953 106.088 230.398 106.516 230.946 107.045C231.653 107.725 232.534 108.574 233.8 108.574C236.194 108.574 237.042 107.373 237.526 106.689C237.77 106.344 237.921 106.13 238.131 106.265Z" fill="#00160A"/>
<path fill-rule="evenodd" clip-rule="evenodd" d="M242.407 44.6822C234.843 46.0316 229.049 51.7629 227.917 60.2298C227.863 60.6323 227.828 61.0249 227.811 61.4075C226.5 61.8187 222.616 63.0723 222.723 63.4638C222.822 63.8281 226.267 63.0092 227.819 62.6204C228.044 66.3326 230.141 68.9939 233.675 70.6222C234.574 71.0366 235.541 71.3769 236.568 71.6512C232.916 72.8015 229.183 74.9058 226.234 77.797C220.785 83.1394 218.259 90.6746 219.604 100.249C219.616 100.336 219.629 100.422 219.641 100.509C215.294 99.1698 212.65 100.947 212.65 105.645C212.65 110.359 219.543 113.008 222.458 111.092C225.397 118.874 229.973 126.068 234.574 130.232C234.434 130.534 234.405 130.887 234.518 131.227C234.856 132.241 234.959 133.006 234.867 133.493L234.848 133.583C234.745 134.012 234.445 134.625 233.944 135.391L233.848 135.535L233.567 135.623C209.478 143.359 200.26 165.779 205.826 202.369L205.846 202.472L205.948 202.905C208.634 214.03 213.718 220.522 220.05 222.204C220.049 222.235 220.049 222.265 220.05 222.296C221.157 259.773 222.124 289.634 222.953 311.88L223.253 319.78L223.553 327.268C223.977 337.559 224.357 345.471 224.695 351.007L224.911 354.405C225.281 359.964 225.497 361.188 226.29 361.749L226.368 361.8L226.427 361.836C226.597 361.935 226.808 362.023 227.059 362.102C226.764 362.101 226.467 362.101 226.17 362.101L220.311 362.095C212.389 362.072 204.804 361.964 194.735 361.749L169.968 361.185C162.555 361.03 158.386 360.982 153.74 360.989L149.982 361.006C139.297 361.091 130.897 361.566 123.785 362.569C106.687 364.979 96.5211 370.639 92.0179 381.317C89.7192 386.768 90.8261 391.479 95.0474 395.148C98.6715 398.298 104.568 400.68 112.593 402.424L113.041 402.52C126.771 405.434 146.264 406.489 170.985 406.118L172.505 406.094C184.117 405.894 196.025 405.417 210.357 404.646L224.627 403.837C229.64 403.548 234.805 403.251 236.644 403.153L239.131 403.025C244.413 402.762 247.818 402.664 249.919 402.729L252.275 402.819C286.342 404.066 312.927 402.363 330.03 398.347C337.832 396.515 343.414 394.244 346.536 391.659C349.916 388.859 350.5 385.49 347.993 382.515C340.175 373.232 327.342 367.987 306.609 365.191L305.537 365.05C290.684 363.122 272.708 362.346 241.936 362.152L242.104 362.141C242.87 362.089 243.472 361.468 243.502 360.702L245.728 298.252C245.791 298.253 245.856 298.251 245.922 298.247C248.831 298.047 250.801 296.249 254.39 289.487L254.817 288.674L255.305 287.728C256.18 286.112 258.503 283.603 260.495 281.452L260.496 281.452C261.803 280.04 262.967 278.783 263.485 278.034C264.558 278.245 266.117 278.409 268.162 278.529L268.417 278.543L266.795 282.484L266.764 282.567C266.561 283.185 266.889 283.86 267.514 284.075C288.925 291.439 300.564 285.692 303.571 270.218C307.859 248.149 296.254 237.061 269.513 237.344L269.935 223.217C271.579 222.985 273.117 222.324 274.496 221.204C278.4 218.036 280.677 211.469 281.126 201.526C282.652 167.744 272.793 146.476 251.478 138.068L250.753 137.789L250.684 137.598C250.309 136.536 250.058 135.676 249.93 135.028L249.903 134.883C249.768 134.124 249.768 132.855 249.918 131.118C249.937 130.902 249.903 130.693 249.828 130.504C255.079 126.256 260.204 118.624 262.705 110.73L262.768 110.752C262.794 110.761 262.821 110.77 262.849 110.78L264.001 111.19C264.757 111.444 265.39 111.608 266.038 111.693C269.589 112.159 271.75 109.845 271.75 104.473C271.75 102.443 270.773 101.038 268.946 100.718C267.751 100.509 266.25 100.785 264.387 101.512C265.276 89.836 262.541 81.4847 256.965 76.2654C254.864 74.2991 252.406 72.8586 249.855 71.928C252.227 71.2934 254.604 70.2195 256.451 68.75C260.691 65.3785 262.028 60.3077 259.596 53.7221L267.864 51.8772L267.93 51.8542C268.208 51.7394 268.277 51.0507 268.277 50.5362C268.277 50.0217 267.855 49.4323 267.536 49.5228L259.078 52.4362C256.357 46.3956 249.5 43.4169 242.407 44.6822ZM229.505 363.905L229.911 363.905C231.859 363.909 233.761 363.917 235.619 363.929C235.476 365.56 235.441 367.546 235.583 369H229.934C229.879 367.837 229.733 365.685 229.505 363.905ZM227.848 363.903C227.719 364.933 227.614 366.094 227.52 367.137C227.446 367.957 227.379 368.704 227.311 369.257C227.265 369.294 227.221 369.334 227.18 369.377C224.021 372.733 220.753 374.917 217.376 375.953L216.826 376.117C213.939 376.961 208.531 378.292 208.638 378.262C206.281 378.934 205.14 379.708 204.739 381.324C204.079 383.985 206.771 385.153 213.756 385.199L214.288 385.2C215.434 385.198 216.446 385.082 218.675 384.729L220.409 384.452C222.158 384.18 223.192 384.064 224.14 384.055L224.55 384.058C225.048 384.071 225.561 384.122 226.684 384.266L228.057 384.444C228.851 384.546 229.412 384.608 230.006 384.657C232.461 384.86 234.336 384.69 235.907 383.936C239.972 381.986 240.467 377.135 237.806 369.791C237.803 369.783 237.799 369.774 237.796 369.765C237.81 369.684 237.817 369.6 237.817 369.514V363.946C271.757 364.246 290.666 366.069 306.208 368.165L307.402 368.33C326.758 371.071 338.602 376.022 345.699 384.447C348.564 387.848 343.396 392.127 329.344 395.426C312.367 399.413 285.665 401.093 251.342 399.782L250.3 399.741C247.843 399.643 243.71 399.775 236.861 400.137L230.563 400.491C228.167 400.628 225.409 400.787 222.801 400.938C218.903 401.162 215.342 401.368 213.826 401.452L210.199 401.65C196.495 402.387 185.018 402.855 173.901 403.068L172.453 403.094C147.221 403.528 127.396 402.5 113.664 399.585C97.7202 396.201 90.1367 390.653 93.5822 382.483C97.5554 373.062 107.858 366.721 123.721 364.408L124.204 364.339C128.945 363.671 134.298 363.775 140.568 363.898C143.688 363.959 147.036 364.024 150.648 364.001L153.743 363.989C158.768 363.982 192.257 363.495 192.257 363.495C203.982 363.755 212.328 363.879 221.239 363.898L227.848 363.903ZM247.808 131.965C245.814 133.231 243.849 133.95 242.05 133.95C240.637 133.95 239.121 133.433 237.566 132.497C237.621 133.035 237.607 133.532 237.521 133.991C237.337 134.971 236.759 136.707 235.797 138.065C235.771 138.102 235.742 138.138 235.712 138.173C237 138.903 238.992 139.661 241.742 139.275C244.771 138.851 246.445 137.775 247.462 136.938C247.304 135.33 247.507 133.424 247.808 131.965ZM247.793 138.546C246.535 140.191 244.416 141.975 241.742 141.975C237.712 141.975 235.065 140.976 234.205 138.854C211.919 146.09 202.098 166.221 207.136 200.894L207.286 201.908L207.369 202.254C210.46 215.093 217.753 220.733 224.934 219.853L225.154 219.824C231.584 218.92 237.851 212.731 239.528 205.678L239.777 204.616C241.028 199.172 241.788 194.359 241.788 190.404L241.784 188.762C241.742 180.146 241.373 173.768 240.91 170.956L240.877 170.764L240.826 170.903C240.63 171.433 240.42 172.082 240.2 172.847L240.134 173.08C239.121 176.672 237.933 182.512 236.581 190.626C235.588 196.589 219.64 204.074 219.401 203.367C219.327 203.147 220.633 202.247 222.491 200.968L222.493 200.966L222.5 200.961C223.224 200.463 224.031 199.907 224.872 199.312C224.842 199.256 224.812 199.198 224.781 199.135C222.431 194.422 220.984 190.286 220.449 186.712C219.92 183.178 221.154 168.957 221.938 168.961L222.037 168.965C222.432 168.993 222.345 170.835 222.216 173.567C222.076 176.544 221.886 180.578 222.216 184.468C222.574 188.692 224.447 192.946 225.748 195.902C226.107 196.718 226.422 197.435 226.651 198.025C230.088 195.474 233.534 192.49 233.918 190.182L234.225 188.364C235.44 181.246 236.524 175.994 237.476 172.559L237.535 172.347C238.057 170.497 238.543 169.175 239.024 168.334C239.779 167.013 240.923 166.325 242.125 167.281C243.461 168.343 244.129 172.912 244.374 181.242C244.579 177.511 244.918 174.491 245.378 172.229C245.763 170.339 246.231 168.971 246.815 168.106C247.645 166.878 248.942 166.459 250.121 167.284L250.201 167.342C252.734 169.281 254.442 178.69 254.542 190.924L254.547 191.948L254.571 192.091C256.118 197.938 259.325 201.347 262.234 203.389C268.171 193.66 264.716 175.636 263.25 167.991C262.827 165.788 262.57 164.446 262.751 164.414C263.566 164.266 264.346 164.808 264.494 165.623C266.37 175.997 267.336 183.666 267.388 188.67C267.441 193.733 266.593 199.068 264.851 204.674C264.825 204.755 264.794 204.832 264.757 204.906C265.645 205.362 266.424 205.691 267.012 205.94C267.771 206.261 268.211 206.447 268.154 206.596C267.888 207.293 257.127 207.293 251.864 192.281C251.846 192.229 251.846 192.154 251.846 192.087L251.846 192.063C251.846 185.802 251.417 180.219 250.664 175.959C250.321 174.019 249.92 172.417 249.492 171.241L249.435 171.086C249.244 170.582 249.056 170.187 248.895 169.913L248.889 169.901L248.855 169.968C248.573 170.55 248.283 171.495 248.024 172.768L247.982 172.979C247.851 173.651 247.687 174.395 247.508 175.21C246.736 178.726 245.675 183.561 245.65 189.587L245.649 190.486C245.649 200.998 253.038 213.726 261.438 218.713C270.166 223.895 277.643 218.802 278.429 201.404C279.938 167.997 270.714 145.612 249.24 140.108C248.538 139.928 248.077 139.348 247.793 138.546ZM244.345 193.706C244.039 197.438 243.26 201.658 242.155 206.302C240.23 214.397 233.106 221.433 225.53 222.498C224.221 222.682 222.945 222.693 221.71 222.532C221.787 223.633 221.873 225.221 221.969 227.224C222.239 227.187 222.523 227.222 222.79 227.342C224.767 228.231 235.708 229.459 245.213 229.649L245.919 229.662C257.225 229.831 265.322 228.575 266.843 226.267L266.935 223.187C265.105 222.911 263.193 222.183 261.259 221.035C252.897 216.07 245.616 204.4 244.345 193.706ZM215.35 105.645C215.116 102.149 217.948 102.379 220.037 102.777C220.483 104.992 221.102 107.229 221.86 109.432L221.753 109.429C219.432 109.365 215.592 109.258 215.35 105.645ZM264.22 103.344C264.178 103.747 264.131 104.155 264.08 104.566C263.897 106.054 263.594 107.562 263.191 109.068C265.896 109.389 270.425 109.566 269.579 103.557C269.25 101.217 266.234 102.486 264.22 103.344ZM241.646 70.6748C242.8 70.6062 243.997 70.6471 245.207 70.7992C248.272 70.7616 252.857 69.3636 254.958 66.8716C263.2 57.0953 251.772 46.0197 242.896 47.4513C236.305 48.5144 230.085 53.1428 229.096 60.5477C228.62 64.1047 230.943 69.7693 241.646 70.6748ZM224.018 283.115C225.272 319.886 226.621 359.471 227.23 360.53C227.333 360.716 228.898 360.73 230.138 360.742L230.14 360.742H230.146C230.471 360.745 230.774 360.748 231.022 360.754L231.69 360.764L232.448 360.765C234.285 360.756 236.601 360.67 239.393 360.507L240.556 360.436L245.143 251.117C245.017 248.63 242.723 245.788 241.181 243.877C240.263 242.74 239.611 241.932 239.841 241.726C240.451 241.181 245.219 246.527 246.098 248.418C246.115 248.483 246.134 248.569 246.155 248.673C246.696 247.255 247.458 245.766 248.45 244.219C248.808 243.661 253.345 237.367 250.108 243.856C243.176 257.752 251.028 263.4 264.733 263.45L264.784 263.45L264.79 263.45C264.903 263.451 264.987 263.452 265.175 263.428C270.511 262.75 276.302 263.063 280.864 263.658C285.347 264.243 293.098 268.609 284.325 271.074C282.229 271.663 278.861 271.307 274.971 270.462L273.917 270.287L267.74 282.782L268.808 283.013C287.528 288.965 298.384 283.411 301.131 270.177L301.215 269.761C305.134 249.591 296.722 237.109 269.48 238.441L269.445 239.625C269.419 240.453 268.728 241.104 267.9 241.079C267.072 241.054 266.421 240.363 266.446 239.534L266.473 238.636C256.934 239.336 263.181 238.138 266.504 237.604L266.729 230.065C262.801 232.064 255.564 232.81 245.942 232.663L245.153 232.649C235.831 232.462 225.401 231.344 222.108 230.284C222.607 241.696 223.297 261.937 224.018 283.112L224.018 283.115ZM271.246 271.672L269.02 277.079C267.477 276.844 266.413 276.571 265.615 276.366C265.35 276.298 265.115 276.238 264.901 276.189C264.611 274.04 264.618 272.482 264.889 271.563C265.125 270.763 265.465 270.313 265.909 270.109C266.866 270.422 267.992 270.763 269.288 271.13L270.263 271.403L271.246 271.672ZM262.872 276.339C262.99 276.262 263.114 276.204 263.242 276.163C262.919 274.434 262.916 271.803 263.187 270.884C263.371 270.259 263.528 269.767 263.738 269.369C263.43 269.264 262.961 269.024 262.383 268.728C259.725 267.367 254.769 264.831 252.587 268.811C248.904 275.527 245.669 296.625 246.611 296.631C247.95 296.64 251.354 291.878 253.595 287.649L253.694 287.46L254.272 286.336C256.031 282.925 258.841 278.984 262.872 276.339ZM273.383 268.959C272.903 268.875 272.428 269.089 272.169 269.486C272.067 269.423 271.954 269.375 271.831 269.345L263.523 267.294L263.34 267.189C257.023 263.619 252.938 263.922 250.087 267.899C249.077 269.309 248.57 271.083 248.327 273.435L248.298 273.733L248.263 274.139C248.23 274.546 248.205 274.967 248.179 275.488L248.077 277.657L248.058 277.986C248.027 278.497 247.995 278.83 247.95 279.143L247.921 279.329L247.829 279.833L247.773 280.093C247.741 280.233 247.702 280.394 247.651 280.593L247.503 281.155L246.602 284.407C246.441 285.15 246.289 285.849 246.147 286.504L247.113 259.416C250.148 263.184 256.597 265.168 265.811 264.595L266.57 264.552C266.927 264.534 267.287 264.515 267.65 264.495L267.661 264.495L267.727 264.491L267.741 264.49C271.754 264.275 276.108 264.04 280.054 264.917C289.891 267.102 285.868 269.11 285.001 269.543L284.949 269.569L284.923 269.582L284.81 269.636C283.424 270.252 280.173 270.127 274.029 269.072L273.383 268.959ZM208.968 380.066L209.296 379.97C209.137 380.018 221.003 378.338 227.354 371.731C228.552 370.485 235.826 371.4 235.826 371.4L235.833 371.419C238.572 375.953 238.966 380.666 235.532 382.056C234.319 382.547 232.271 383.036 230.203 382.865L229.902 382.839L229.479 382.797C229.188 382.766 228.874 382.728 228.507 382.682L226.463 382.419C225.388 382.287 224.913 382.254 224.263 382.254C223.128 382.254 217.673 383.056 217.673 383.056C216.008 383.311 215.16 383.399 214.284 383.4C210.777 383.405 208.569 382.543 207.483 382.101L207.379 382.056C207.282 382.012 207.203 381.969 207.141 381.929L207.074 381.881L207.068 381.902C207.194 381.395 207.619 380.477 208.968 380.066ZM262.05 104.566C262.393 101.789 262.506 99.1936 262.415 96.7805C258.258 98.4313 254.096 98.1282 250.559 96.0455C247.653 94.3343 245.036 91.6151 242.696 87.9018L242.611 87.7644L242.533 87.9139C240.644 91.5013 238.206 94.3663 235.221 96.4947L234.921 96.7051C231.175 99.2832 226.78 100.434 221.78 100.161L221.8 100.249C224.651 112.8 234.561 132.136 242.214 132.6C245.141 132.777 249.389 128.049 253.327 122.924C257.58 117.39 261.269 110.89 262.05 104.566ZM255.12 78.2366C258.865 81.7417 261.508 87.0965 262.24 94.255C262.196 94.269 262.152 94.2856 262.109 94.305C258.433 95.953 254.831 96.3755 251.777 94.5774C248.753 92.7967 246.004 89.0859 243.551 84.622C243.07 83.7467 241.793 83.8079 241.397 84.7251C241.319 84.9073 241.233 85.1125 241.139 85.3375C240.055 87.9305 237.875 93.143 233.147 95.8947C229.704 97.8979 224.625 98.4051 222.117 98.6555L222.114 98.6558L222.11 98.6562C221.887 98.6785 221.683 98.6988 221.504 98.718C221.41 98.134 221.34 97.5535 221.291 96.9775C224.157 96.4586 230.179 94.4752 232.601 92.9543C235.672 91.0251 236.612 89.0562 238.176 85.7829C238.463 85.183 238.77 84.5391 239.115 83.8439C239.414 83.2435 240.121 79.2426 238.444 82.2851C238.343 82.4699 238.235 82.6717 238.119 82.8884L238.118 82.8896L238.118 82.8904L238.117 82.8909C236.373 86.1511 232.83 92.7741 221.222 95.7952C220.996 89.0738 223.713 83.0509 227.686 79.1559C231.396 75.5182 237.008 73.1131 241.272 72.6994C245.757 72.2643 251.181 74.5493 255.12 78.2366Z" fill="#00160A"/>
<path fill-rule="evenodd" clip-rule="evenodd" d="M133.672 287.899C132.954 280.243 129.391 272.665 123.745 267.462C119.634 263.673 113.742 260.5 108.244 263.213C99.786 268.262 97.5147 278.622 98.3675 287.899C99.4248 299.397 104.796 306.487 115.114 310.722C120.928 313.107 124.792 316.254 127.948 321.738C130.473 326.123 131.944 331.614 135.117 335.589C139.859 341.532 145.794 344.174 153.11 343.187C154.56 343.187 159.231 347.536 160.69 350.17C164.502 357.049 167.774 364.313 169.275 372.08C169.714 374.347 169.404 382.827 170.951 384.464C173.78 387.457 172.951 381.693 172.782 379.953C171.377 365.545 166.204 353.27 158.694 341.157C161.001 338.144 161.335 330.474 160.61 328.055C158.694 320.555 135.118 303.311 133.672 287.899Z" fill="white"/>
<path fill-rule="evenodd" clip-rule="evenodd" d="M107.379 261.475L107.337 261.498C99.4796 266.188 96.6059 272.741 97.1701 287.954C97.7629 303.938 103.561 306.772 113.969 311.145L114.286 311.277C120.129 313.674 123.814 316.799 126.828 322.037L127.07 322.465C127.597 323.414 128.067 324.383 128.73 325.863L129.919 328.559C131.523 332.177 132.545 334.08 134.048 335.964C138.981 342.145 145.151 344.785 152.59 343.781L152.661 343.767L152.729 343.745C153.882 343.292 157.802 347.277 159.565 350.46C163.849 358.192 166.616 364.935 167.993 371.721L168.086 372.194C168.175 372.654 168.234 373.36 168.302 374.703L168.396 376.692C168.418 377.156 168.439 377.558 168.461 377.94L168.475 378.167C168.698 381.866 169.066 383.978 169.915 384.876C171.049 386.076 172.096 386.302 172.67 385.26C172.996 384.667 173.073 383.71 173.003 382.363L172.975 381.913C172.958 381.683 172.938 381.444 172.913 381.188L172.719 379.298C171.344 366.197 166.868 354.309 158.966 341.427L158.812 341.177L158.91 341.021C160.801 337.899 161.491 330.908 160.584 327.883C159.035 322.714 155.97 318.531 150.393 313.015L149.422 312.058C139.992 302.731 136.829 297.92 134.237 287.654L133.345 284.102L133.323 284.015C131.194 275.809 128.96 270.924 124.735 267.031C119.666 262.36 112.541 258.928 107.379 261.475ZM123.922 267.914C127.798 271.485 130.538 275.998 132.55 283.514L132.982 285.177L133.584 287.591C134.237 294.061 136.254 301.684 148.579 312.912L149.234 313.558C154.88 319.099 157.929 323.203 159.435 328.227C160.291 331.085 159.507 338.325 157.618 340.792C157.466 340.99 157.453 341.261 157.584 341.473C165.621 354.435 170.148 366.314 171.525 379.415L171.694 381.047L171.741 381.542C171.762 381.778 171.779 382 171.792 382.214L171.804 382.425C171.863 383.546 171.798 384.356 171.619 384.681L171.61 384.703L171.631 384.709C171.472 384.675 171.178 384.466 170.787 384.052C170.244 383.477 169.892 381.524 169.689 378.354L169.646 377.641L169.49 374.437C169.426 373.222 169.368 372.541 169.278 372.04L169.265 371.966C167.894 364.878 165.055 357.891 160.615 349.879L160.518 349.706C158.442 346.058 154.409 341.975 152.385 342.595L152.373 342.599L152.43 342.592C145.419 343.538 139.662 341.074 134.986 335.215C133.523 333.383 132.521 331.49 130.876 327.756L130.028 325.826C129.133 323.81 128.58 322.675 127.868 321.439C124.775 316.064 120.966 312.783 115.071 310.303L114.742 310.167C104.538 305.978 99.3926 299.02 98.365 287.844L98.3357 287.51C97.4692 277.189 100.567 268.287 107.719 263.87L107.93 263.741L107.91 263.751C112.544 261.464 119.179 263.543 123.922 267.914Z" fill="#00160A"/>
<path fill-rule="evenodd" clip-rule="evenodd" d="M166.907 343.37C170.378 343.903 173.402 341.87 174.566 338.483C175.572 335.556 175.67 332.151 176.813 329.383C177.6 327.477 178.852 325.858 180.383 324.489C184.422 320.879 188.638 319.976 189.842 313.984C190.786 309.286 189.614 299.712 183.058 300.666C178.497 301.334 174.811 307.428 172.687 311.272C170.058 316.028 167.605 321.124 166.224 326.349C163.949 334.955 163.641 344.507 163.613 353.321C163.61 354.383 163.388 367.357 164.905 367.144C166.408 366.933 165.456 353.466 165.584 350.678" fill="white"/>
<path d="M168.08 334.868C168.787 330.447 170.416 327.948 172.208 328.399C173.946 328.837 174.293 331.723 172.965 334.769C171.574 337.96 170.326 339.525 169.151 339.284C168.009 339.05 167.704 337.361 168.045 335.098L168.08 334.868ZM140.412 328.045C141.854 328.135 143.839 329.237 145.689 330.863C147.545 332.494 148.938 334.364 149.301 335.87C149.784 337.878 148.497 339.114 145.723 339.114C144.429 339.114 143.3 338.907 142.085 338.202C140.292 337.162 138.969 335.266 138.299 332.353C137.646 329.515 138.441 327.922 140.412 328.045ZM171.915 329.563C171.121 329.364 169.322 331.188 168.704 334.823L168.632 335.277C168.496 336.177 168.496 336.936 168.583 337.516C169.152 341.332 171.301 336.458 172.09 334.406C173.094 331.794 172.691 329.759 171.915 329.563ZM140.337 329.242C139.341 329.18 138.371 329.922 138.868 332.084C139.466 334.684 141.193 336.897 142.687 337.764C143.684 338.341 144.622 338.514 145.723 338.514C147.79 338.513 148.414 337.315 148.135 336.151C147.842 334.935 146.585 333.247 144.897 331.764C143.229 330.298 141.453 329.312 140.337 329.242ZM140.351 314.602C141.166 313.244 143.299 314.128 145.461 316.503C146.813 317.989 148.708 320.56 149.267 321.83C149.494 322.347 149.572 322.733 149.397 323.085C149.134 323.617 148.609 323.631 147.996 323.38C147.213 323.059 145.89 322.14 143.935 320.546L143.307 320.029C140.823 317.965 139.635 315.796 140.351 314.602ZM179.415 316.59C182.261 312.013 184.726 310.284 185.782 312.263C186.559 313.718 185.546 316.756 183.52 318.756C181.015 321.227 179.001 322.92 177.956 323.262C176.81 323.636 176.369 322.76 176.781 321.522C177.089 320.596 177.857 319.13 179.125 317.06L179.415 316.59ZM141.469 315.185C141.405 315.193 141.389 315.203 141.379 315.22C141.287 315.372 140.757 315.82 141.093 316.433C141.534 317.239 142.942 318.765 144.074 319.706C145.869 321.198 147.767 322.161 148.572 322.627L148.652 322.672L148.563 322.505C147.911 321.314 145.829 318.719 144.707 317.459L144.573 317.31C143.631 316.275 142.762 315.601 142.078 315.317C141.815 315.208 141.605 315.169 141.469 315.185ZM184.724 312.227C184.623 312.039 184.415 312.03 183.835 312.437C182.943 313.063 181.179 315.06 179.834 317.223C178.439 319.467 177.163 322.168 177.555 322.457C178.001 322.785 180.316 320.188 182.109 318.456L182.677 317.901C184.366 316.234 185.203 313.125 184.724 312.227ZM116.95 303.803C117.765 302.443 119.899 303.328 122.061 305.703C123.413 307.189 125.307 309.759 125.866 311.029C126.094 311.547 126.171 311.933 125.997 312.285C125.734 312.817 125.209 312.831 124.597 312.58C123.814 312.259 122.49 311.339 120.534 309.745L119.907 309.228C117.424 307.164 116.235 304.996 116.95 303.803ZM118.068 304.386C118.005 304.393 117.99 304.403 117.979 304.42C117.888 304.572 117.357 305.02 117.692 305.634C118.134 306.439 119.541 307.965 120.674 308.906C122.469 310.398 123.767 311.362 124.572 311.827L124.652 311.872L124.563 311.705C123.911 310.514 122.428 307.919 121.307 306.659L121.174 306.511C120.231 305.475 119.362 304.801 118.678 304.517C118.415 304.408 118.205 304.369 118.068 304.386ZM180.54 304.631C183.345 303.403 185.169 303.315 185.16 304.843C185.154 305.875 183.762 307.317 181.639 308.613C179.486 309.927 177.476 309.998 176.982 308.648C176.511 307.36 177.928 305.774 180.54 304.631ZM128.95 300.203C129.765 298.844 131.899 299.727 134.061 302.102C135.413 303.588 137.307 306.16 137.866 307.43C138.094 307.947 138.171 308.332 137.997 308.684C137.734 309.217 137.21 309.231 136.597 308.98C135.814 308.66 134.49 307.74 132.534 306.145L131.907 305.629C129.424 303.565 128.235 301.396 128.95 300.203ZM183.684 304.916C183.117 304.943 181.639 304.63 178.427 306.223C177.833 306.518 177.454 308.083 177.51 308.236C177.646 308.607 179.415 309.165 181.014 308.188C181.96 307.61 182.743 306.404 183.281 305.846C183.64 305.474 183.859 305.152 183.933 304.957L183.943 304.924C183.895 304.917 183.835 304.912 183.762 304.913L183.684 304.916ZM130.068 300.786C130.005 300.794 129.99 300.803 129.979 300.82C129.888 300.973 129.553 301.49 129.889 302.102C130.33 302.908 131.621 304.946 132.074 305.305C133.904 306.754 136.366 307.761 137.172 308.226L137.252 308.271L137.164 308.104C136.512 306.914 134.428 304.319 133.307 303.058L133.174 302.911C132.231 301.876 131.362 301.201 130.678 300.918C130.415 300.809 130.205 300.77 130.068 300.786ZM102.648 288.415C104.371 286.333 112.324 293.536 112.22 297.135C112.159 299.234 111.246 300.311 109.731 300.036C108.609 299.832 107.24 298.843 105.882 297.361C102.943 294.156 101.203 290.162 102.648 288.415ZM103.527 288.64C102.74 289.782 103.66 293.817 106.166 296.551C107.362 297.856 109.145 299.31 109.946 299.456C110.615 299.577 110.979 299.149 111.02 297.7C111.059 296.369 109.577 293.584 107.408 291.619C106.441 290.743 104.714 288.64 103.697 288.628C103.568 288.626 103.547 288.612 103.573 288.58L103.527 288.64ZM117.529 271.38C118.48 270.892 119.915 271.664 121.752 273.291C125.282 276.417 128.606 281.145 128.12 283.034C127.581 285.128 125.632 285.62 123.498 284.427C121.411 283.259 119.368 280.691 117.983 277.282C116.601 273.879 116.374 271.973 117.529 271.38ZM120.956 274.188C120.114 273.17 118.72 271.627 118.077 271.847C117.402 272.079 117.398 274.13 118.577 276.403L118.768 276.881C120.057 280.054 122.256 282.957 124.084 283.979C125.6 284.827 126.642 284.564 126.958 283.335C127.281 282.078 123.789 277.614 120.956 274.188Z" fill="#FFB61D"/>
<path fill-rule="evenodd" clip-rule="evenodd" d="M182.971 300.073C186.284 299.59 189.212 301.506 190.429 305.009C191.386 307.76 190.973 311.4 190.43 314.102C189.734 317.568 188.283 319.42 185.088 321.714L183.168 323.061C182.505 323.534 181.961 323.945 181.44 324.373C181.214 324.559 180.996 324.746 180.783 324.936C179.238 326.318 178.085 327.875 177.368 329.612L177.27 329.856C176.89 330.83 176.649 331.795 176.302 333.596L176.005 335.171C175.703 336.739 175.476 337.683 175.134 338.678C173.821 342.498 171.048 344.52 167.416 343.963C167.088 343.912 166.012 343.994 168.423 343.505C170.835 343.017 172.862 341.595 173.999 338.288C174.319 337.358 174.536 336.455 174.828 334.935L175.127 333.351C175.517 331.331 175.782 330.309 176.259 329.154C177.048 327.241 178.309 325.539 179.983 324.042C180.208 323.841 180.439 323.643 180.678 323.447C181.154 323.054 181.647 322.678 182.22 322.264L182.804 321.849C183.288 321.51 184.026 320.996 184.175 320.891L184.59 320.593C187.416 318.532 189.242 316.912 189.854 313.865C190.356 311.367 189.579 307.945 188.696 305.403C187.649 302.39 185.804 300.273 183.145 300.66C179.229 301.233 169.507 315.464 166.818 324.177C164.607 331.346 164.045 342.352 164.192 352.233L164.215 353.641L164.212 355.582C164.213 357.155 164.229 358.469 164.27 359.836L164.281 360.179C164.347 362.157 164.461 363.781 164.632 364.95C164.689 365.335 164.751 365.665 164.817 365.933L164.85 366.064L164.869 365.983C164.943 365.623 165.004 365.152 165.05 364.579L165.065 364.384L165.092 363.971C165.166 362.693 165.181 361.058 165.149 359.016L165.122 357.589C165.11 357.065 165.095 356.501 165.077 355.845L164.976 352.076C164.965 351.49 164.966 351.183 164.975 350.896L165.02 349.804C165.052 348.917 165.072 347.995 165.095 346.531L165.129 344.409C165.22 339.557 165.397 337.141 165.975 334.17C166.062 333.722 166.158 333.28 166.261 332.843C167.776 326.468 171.034 321.879 174.187 316.256C175.134 314.567 180.103 311.981 180.149 312.309C180.194 312.637 175.894 314.578 174.588 316.75C171.811 321.368 168.909 326.888 167.429 333.12C167.329 333.541 167.237 333.967 167.153 334.399L167.044 334.983C166.568 337.619 166.412 339.98 166.329 344.443L166.266 348.161C166.25 348.917 166.233 349.52 166.208 350.132L166.172 351.023C166.164 351.352 166.168 351.757 166.189 352.625L166.316 357.334C166.327 357.796 166.336 358.224 166.344 358.651L166.363 360.027C166.42 365.365 166.171 367.572 164.988 367.738C164.062 367.868 163.715 366.967 163.445 365.124C163.277 363.973 163.163 362.432 163.094 360.572L163.082 360.219C163.032 358.711 163.013 357.301 163.012 355.586L163.013 353.336C162.76 343.067 163.936 331.394 166.272 323.823C169.088 314.695 178.429 300.737 182.971 300.073Z" fill="#00160A"/>
<ellipse cx="164.8" cy="373.2" rx="23.4" ry="17.4" fill="white"/>
<ellipse cx="155.503" cy="373.2" rx="14.1029" ry="17.4" fill="#E7EAEE"/>
<path fill-rule="evenodd" clip-rule="evenodd" d="M188.2 355.05H141.4C140.986 355.05 140.65 355.386 140.65 355.8C140.65 368.618 141.86 376.599 145.074 382.14C148.698 388.387 154.942 391.35 164.8 391.35C174.658 391.35 180.902 388.387 184.526 382.14C187.74 376.599 188.95 368.618 188.95 355.8C188.95 355.386 188.614 355.05 188.2 355.05ZM143.351 356.55H186.848L186.848 356.722C186.791 368.753 186.797 376.269 183.829 381.387C180.499 387.128 174.161 390.45 164.8 390.45C155.439 390.45 149.701 386.528 146.371 380.787L146.259 380.591C143.411 375.547 143.44 368.799 143.355 357.195L143.351 356.55Z" fill="#00160A"/>
</svg>
